<?xml version="1.0" standalone="no"?>
<!DOCTYPE svg PUBLIC "-//W3C//DTD SVG 20010904//EN"
 "http://www.w3.org/TR/2001/REC-SVG-20010904/DTD/svg10.dtd">
<svg version="1.0" xmlns="http://www.w3.org/2000/svg"
 width="1024.000000pt" height="1024.000000pt" viewBox="0 0 1024.000000 1024.000000"
 preserveAspectRatio="xMidYMid meet">

<g transform="translate(0.000000,1024.000000) scale(0.100000,-0.100000)"
fill="#000000" stroke="none">
<path d="M200 5115 l0 -4925 2152 0 c1183 0 2149 2 2147 5 -3 2 -178 5 -390 5
-248 1 -379 4 -369 10 13 9 13 11 0 19 -17 12 -30 5 -30 -15 0 -10 -13 -14
-50 -14 -47 0 -63 11 -40 25 15 9 1 27 -16 21 -10 -4 -14 0 -12 11 2 10 -5 17
-20 18 -20 1 -21 0 -7 -15 8 -9 15 -23 15 -30 0 -9 -5 -7 -15 6 -15 18 -15 18
-11 -7 3 -20 0 -25 -15 -24 -29 2 -35 15 -8 16 22 0 23 1 4 9 -11 5 -14 9 -6
9 8 1 11 8 8 21 -3 10 0 21 6 23 7 2 7 6 1 9 -5 4 -18 0 -29 -8 -10 -8 -13
-14 -6 -14 7 0 9 -5 5 -11 -4 -8 -9 -7 -15 2 -4 8 -16 14 -25 14 -10 0 -25 14
-34 30 -10 18 -24 29 -34 27 -22 -4 -20 11 4 25 16 11 18 10 13 -4 -4 -11 -3
-14 5 -9 7 4 12 2 12 -3 0 -6 5 -10 12 -9 7 2 17 -7 23 -19 5 -13 15 -23 22
-23 15 0 17 16 3 25 -20 12 -9 48 25 82 19 19 35 41 35 49 0 8 5 14 11 14 5 0
7 -6 3 -12 -4 -7 0 -6 8 2 9 8 18 27 22 41 5 23 3 26 -17 24 -31 -3 -31 -3
-19 -17 6 -9 4 -19 -9 -32 -11 -11 -19 -15 -19 -9 0 15 -51 64 -61 58 -11 -8
-20 11 -13 28 3 9 15 14 32 12 36 -4 44 2 33 24 -8 13 -18 16 -43 13 l-33 -5
20 22 c16 19 17 24 5 33 -12 8 -11 9 4 4 12 -4 24 0 33 14 8 11 18 18 23 15 4
-3 8 5 8 18 1 12 2 33 4 47 2 20 -2 26 -22 28 -13 2 -29 11 -36 20 -6 9 -18
13 -28 9 -9 -4 -16 -2 -16 2 0 5 6 11 13 14 14 5 16 45 3 65 -4 7 -18 10 -31
8 -14 -3 -28 0 -31 6 -4 7 -2 8 4 4 7 -4 12 -2 12 3 0 6 -7 11 -16 11 -9 0
-23 8 -31 18 -8 9 -12 11 -8 4 3 -6 -1 -15 -9 -18 -9 -3 -13 -10 -10 -15 3 -5
1 -9 -3 -9 -5 0 -9 -9 -9 -20 0 -11 6 -20 14 -20 7 0 10 5 6 12 -5 7 -3 8 6 3
10 -6 10 -10 -3 -20 -14 -10 -13 -13 6 -25 23 -14 34 -14 30 1 -2 4 6 13 17
19 11 6 20 7 20 3 1 -4 3 -25 6 -45 5 -32 3 -37 -15 -35 -15 1 -17 4 -9 14 15
19 3 27 -21 13 -14 -7 -21 -7 -21 -1 0 7 -9 7 -25 -1 -14 -6 -25 -18 -24 -27
0 -10 2 -12 6 -3 8 19 53 15 53 -5 0 -15 -2 -16 -10 -3 -5 8 -11 12 -14 9 -3
-2 -1 -11 3 -18 7 -11 13 -10 35 4 15 10 26 13 26 6 0 -5 6 -9 13 -7 6 1 9 1
5 -1 -15 -8 -8 -22 13 -28 16 -5 18 -10 9 -18 -8 -9 -15 -8 -24 6 -30 40 -55
2 -31 -46 19 -37 19 -47 2 -22 -8 10 -17 14 -20 9 -9 -16 17 -84 33 -84 12 -1
11 -3 -3 -11 -9 -6 -15 -15 -12 -20 4 -5 11 -7 16 -4 5 4 9 0 9 -8 0 -8 -8
-17 -18 -19 -15 -4 -18 2 -20 41 -3 77 -21 107 -60 102 -9 -2 -7 5 5 17 10 11
21 19 24 18 4 -1 7 2 8 7 1 4 -1 7 -4 7 -3 -1 -12 6 -20 14 -8 8 -19 16 -25
18 -6 2 -12 13 -13 26 -1 23 -26 32 -28 10 0 -7 -4 -4 -9 7 -12 28 -12 32 6
50 13 13 14 18 3 33 -11 14 -11 15 1 5 8 -7 17 -13 21 -13 9 0 6 27 -4 36 -11
11 -8 36 3 29 6 -3 10 3 10 14 0 10 3 28 7 38 6 15 4 16 -9 5 -13 -10 -16 -9
-21 10 -4 13 -1 26 6 30 11 7 2 12 -16 9 -4 -1 -3 8 4 20 9 17 8 23 -2 30 -10
6 -11 9 -1 9 6 0 12 7 12 15 0 8 7 15 16 15 11 0 14 5 10 16 -3 9 -6 18 -6 21
0 3 -6 0 -14 -6 -19 -16 -45 -3 -41 21 3 15 1 17 -9 9 -11 -9 -12 -6 -8 16 4
22 2 25 -14 20 -15 -5 -15 -4 3 9 12 9 32 24 44 35 21 18 21 21 7 36 -15 14
-19 13 -42 -12 -23 -25 -30 -26 -28 -3 1 3 -5 11 -13 18 -12 10 -13 8 -10 -9
2 -14 -1 -21 -11 -21 -11 0 -13 6 -9 19 7 22 -6 34 -29 25 -16 -6 -23 -46 -8
-42 4 0 16 -3 26 -7 17 -8 18 -9 3 -14 -15 -6 -15 -9 -2 -35 19 -35 12 -45
-14 -22 -11 10 -18 27 -16 38 6 30 -4 41 -23 26 -13 -11 -14 -11 -4 8 10 18 8
23 -13 32 -13 6 -29 21 -36 34 -11 20 -10 21 3 10 13 -10 18 -9 29 5 8 9 9 14
3 10 -7 -4 -18 1 -25 10 -9 11 -10 14 -2 10 19 -12 52 27 41 47 -5 9 -11 34
-13 56 -4 42 6 56 52 69 132 40 345 142 329 158 -8 9 124 104 135 97 23 -14
171 127 291 276 86 108 195 352 227 510 31 149 35 182 22 189 -7 5 -12 47 -12
117 0 97 -2 107 -15 90 -8 -11 -14 -24 -14 -30 0 -5 -2 -7 -5 -4 -3 3 1 24 10
47 43 122 66 395 46 546 -41 305 -162 561 -365 774 -403 420 -1047 529 -1563
264 l-102 -52 -6 64 c-7 61 1 371 10 385 2 3 6 27 9 53 4 26 12 65 20 87 7 22
10 40 5 40 -5 0 -9 5 -9 11 0 5 5 7 10 4 6 -3 10 4 10 17 0 19 -2 20 -11 8 -8
-12 -9 -10 -7 10 2 14 -4 31 -12 38 -12 10 -10 10 12 1 15 -7 25 -16 21 -22
-3 -6 -1 -7 6 -3 9 6 9 11 -1 24 -11 13 -11 14 7 4 18 -9 21 -7 22 9 1 15 -3
19 -18 14 -11 -4 -19 -2 -19 4 0 6 3 10 8 10 4 -1 14 -1 22 0 13 1 13 2 0 11
-10 6 -11 10 -2 10 6 0 12 7 12 15 0 14 16 19 52 16 9 -1 31 5 48 14 17 9 36
13 42 9 7 -4 8 -3 4 4 -6 10 18 16 50 11 4 0 10 3 13 8 9 14 142 75 149 69 2
-3 22 8 42 24 21 17 40 30 43 30 3 0 17 11 31 24 14 13 47 34 73 47 27 13 49
27 51 31 2 4 10 4 18 1 8 -3 14 1 14 8 1 27 21 -21 22 -51 1 -23 14 -43 55
-81 29 -27 57 -48 62 -44 5 3 12 1 15 -4 3 -5 20 -7 38 -5 18 1 78 6 133 9 54
4 102 8 106 11 7 4 48 10 129 19 140 15 629 22 693 10 36 -7 37 -7 37 23 l0
31 38 -13 c37 -13 81 -8 106 13 8 7 20 6 38 -3 22 -12 28 -12 41 2 13 12 19
13 31 3 11 -9 15 -9 19 1 4 8 6 7 6 -4 1 -10 7 -18 15 -18 8 0 22 -3 32 -7 11
-4 15 -3 10 5 -11 18 49 -3 105 -37 27 -17 53 -31 57 -31 4 0 23 -11 42 -23
27 -18 48 -24 88 -23 30 1 55 -1 58 -5 2 -4 28 -10 59 -14 30 -3 57 -11 60
-16 9 -13 95 -8 95 6 0 7 -18 40 -41 75 -22 34 -39 63 -37 65 6 4 203 -36 211
-44 4 -4 -16 -26 -45 -48 -149 -113 -261 -275 -303 -438 -34 -132 -11 -362 54
-549 16 -44 32 -90 36 -101 6 -16 3 -15 -14 5 -12 14 -21 21 -20 15 3 -22 -2
-27 -14 -16 -10 8 -14 7 -14 -4 0 -8 5 -15 11 -15 7 0 7 -3 1 -8 -14 -10 -16
-44 -2 -35 7 4 8 0 2 -13 -12 -27 -8 -72 9 -108 8 -17 17 -49 20 -70 4 -22 10
-44 15 -50 5 -6 11 -27 14 -46 9 -58 19 -84 35 -97 9 -7 13 -13 9 -13 -3 0 5
-22 18 -49 14 -27 25 -58 25 -69 0 -11 6 -25 14 -31 8 -7 13 -21 11 -32 -2
-10 0 -19 6 -19 5 0 9 -7 9 -16 0 -14 28 -79 50 -114 22 -37 59 -128 58 -146
-1 -10 10 -57 24 -104 47 -155 61 -224 62 -300 1 -67 3 -75 24 -86 13 -6 20
-14 14 -17 -5 -4 -9 -75 -9 -159 -1 -84 -6 -181 -12 -216 -9 -49 -9 -67 0 -78
14 -17 41 -18 57 -2 9 9 12 -4 12 -62 l0 -73 24 22 c19 18 24 35 29 96 3 48
14 94 30 127 27 60 96 150 131 173 23 16 27 14 88 -30 79 -59 115 -78 131 -69
7 4 5 0 -3 -8 -8 -8 -70 -38 -137 -68 -68 -29 -128 -59 -134 -67 -7 -7 -9 -28
-6 -48 9 -53 96 -204 150 -259 l48 -48 -26 -28 c-36 -38 -6 -35 33 3 26 25 33
27 132 28 95 1 151 6 250 24 l35 7 1 -94 c0 -51 6 -110 12 -131 l11 -38 -47 6
c-147 21 -370 84 -440 125 -18 11 -30 14 -25 8 4 -7 6 -22 5 -34 -2 -17 9 -26
56 -47 75 -34 218 -72 356 -95 l108 -17 32 -90 c40 -110 101 -243 123 -267 9
-11 18 -29 19 -41 3 -18 0 -16 -12 8 -13 25 -28 34 -97 55 -97 29 -253 103
-340 162 -34 23 -96 75 -138 115 -43 41 -80 70 -83 65 -3 -5 3 -34 14 -63 19
-49 21 -31 4 31 -17 61 9 3 60 -135 90 -248 134 -356 149 -368 22 -18 50 -102
42 -126 -4 -12 -2 -21 4 -21 6 0 11 -5 11 -10 0 -6 -8 -5 -20 2 -10 7 -17 14
-15 16 2 3 -5 18 -16 33 -15 22 -18 37 -13 64 3 19 4 35 0 35 -3 0 -27 -16
-53 -37 -62 -47 -186 -105 -240 -111 l-43 -5 -1 49 c0 54 -10 87 -24 82 -12
-4 -84 162 -140 323 -26 74 -51 138 -55 143 -14 14 -51 -73 -57 -133 -3 -31
-9 -63 -13 -71 -8 -15 18 -175 44 -275 8 -31 12 -63 9 -71 -3 -8 -24 -27 -46
-44 -23 -17 -65 -53 -94 -81 -63 -61 -70 -96 -25 -127 43 -30 60 -34 176 -41
l108 -6 20 -49 19 -49 -22 -23 c-12 -13 -24 -22 -27 -20 -11 12 -207 -89 -232
-119 -7 -8 -18 -15 -25 -15 -20 0 -71 -64 -78 -97 -17 -86 47 -139 180 -147
46 -3 92 -10 104 -16 11 -7 23 -9 27 -6 3 3 -1 6 -9 6 -11 0 -11 2 1 10 8 5
36 9 61 8 25 0 70 7 100 15 30 9 65 18 79 21 53 10 99 29 169 68 27 16 39 18
53 9 26 -16 59 -13 74 7 12 16 13 15 9 -6 -2 -12 0 -20 5 -17 13 8 60 -24 60
-40 0 -16 27 -27 35 -15 9 14 55 -10 56 -29 0 -9 3 -11 5 -5 3 7 19 9 42 5 37
-6 160 -6 259 1 40 2 53 0 57 -12 3 -11 4 -11 5 3 1 18 21 24 21 6 0 -6 7 -9
15 -5 8 3 14 2 14 -2 -1 -4 -1 -20 0 -36 1 -23 4 -27 13 -18 17 17 25 15 31
-8 3 -13 0 -20 -9 -20 -8 0 -11 7 -8 18 5 13 4 14 -4 3 -6 -8 -9 -23 -7 -34 4
-15 2 -17 -10 -7 -11 9 -15 9 -15 1 0 -7 -8 -11 -17 -9 -12 2 -18 -3 -17 -15
2 -13 -1 -15 -11 -7 -9 7 -20 6 -40 -4 -24 -13 -30 -13 -42 0 -13 12 -16 12
-29 0 -19 -20 -18 -26 7 -26 13 0 18 4 13 12 -5 10 -4 10 6 1 7 -6 19 -9 26
-6 8 3 14 0 14 -6 0 -7 -248 -11 -847 -11 -465 0 -848 -2 -851 -5 -3 -3 1201
-5 2676 -5 l2682 0 0 4925 0 4925 -1797 0 c-988 0 -1794 -2 -1791 -5 2 -3 84
-5 181 -6 131 0 178 -3 186 -13 6 -7 7 -16 3 -21 -4 -4 3 -2 15 6 29 17 43 4
17 -17 -10 -8 -13 -12 -5 -8 11 5 13 2 9 -14 -4 -15 -2 -22 8 -22 8 0 11 6 8
15 -4 8 -1 15 6 15 8 0 11 11 8 30 -5 32 -1 35 22 20 10 -6 11 -10 3 -10 -20
0 -15 -30 5 -31 14 0 14 -2 -3 -9 -11 -5 -14 -9 -6 -9 11 -1 11 -4 1 -16 -7
-9 -8 -15 -2 -15 16 0 6 -52 -12 -62 -9 -5 -14 -14 -10 -19 4 -6 11 -6 20 2
10 8 14 8 14 0 0 -6 -5 -11 -10 -11 -13 0 -9 -32 5 -42 6 -5 6 -8 -1 -8 -7 0
-15 -7 -18 -16 -5 -14 -4 -15 9 -4 13 11 14 10 10 -3 -8 -19 -37 -27 -59 -15
-17 9 -15 61 4 83 5 6 7 20 5 30 -2 11 -4 22 -4 25 -1 3 -10 6 -21 7 -15 1
-20 -4 -20 -23 0 -17 -5 -24 -20 -24 -11 0 -23 0 -27 0 -12 -1 -12 30 0 43 18
19 18 35 0 33 -9 -2 -21 -16 -26 -32 -6 -16 -14 -32 -20 -35 -18 -13 5 -31 34
-27 21 3 29 0 29 -10 0 -9 -6 -12 -16 -8 -9 3 -12 2 -9 -4 4 -6 14 -9 23 -8
12 2 16 -3 14 -17 -1 -11 -3 -29 -4 -40 -1 -11 -5 -24 -9 -30 -10 -15 -6 -65
6 -63 10 3 16 20 19 55 0 11 4 19 9 16 4 -2 7 0 7 6 0 5 -6 12 -12 14 -7 3 -2
6 11 6 16 1 21 -3 18 -13 -3 -8 -1 -17 6 -20 9 -5 9 -7 -1 -12 -6 -3 -9 -10
-6 -15 3 -6 0 -17 -7 -25 -22 -27 -18 -51 8 -46 13 2 23 -1 23 -7 0 -6 8 -11
19 -11 11 0 21 -9 24 -22 2 -13 8 -32 13 -43 6 -16 5 -18 -7 -10 -9 6 -9 4 1
-5 9 -9 16 -25 15 -38 -2 -22 26 -39 44 -27 5 3 12 1 16 -5 3 -6 -1 -13 -10
-16 -13 -5 -11 -10 13 -24 24 -15 28 -23 24 -48 -2 -17 1 -33 9 -37 8 -6 10
-4 4 5 -5 8 -4 11 3 7 12 -8 10 -32 -3 -44 -4 -5 -4 -1 0 7 5 8 -3 4 -17 -9
-27 -26 -27 -46 1 -68 14 -11 13 -13 -6 -19 -13 -3 -23 -11 -23 -18 0 -6 -8 4
-17 22 -15 31 -15 34 4 55 11 12 18 28 15 36 -3 9 0 11 7 6 9 -5 9 -1 -1 14
-7 12 -16 21 -21 21 -4 0 -5 -5 -1 -12 4 -7 3 -8 -5 -4 -9 6 -8 14 3 32 21 31
20 37 -8 50 -24 11 -24 10 -24 -32 0 -32 5 -48 18 -57 22 -15 15 -28 -24 -45
-24 -11 -27 -15 -15 -23 7 -5 10 -9 4 -9 -5 0 -3 -5 5 -10 10 -6 11 -10 3 -10
-7 0 -13 -4 -13 -10 0 -5 6 -10 14 -10 10 0 12 -7 8 -22 -4 -16 -7 -18 -10 -8
-7 21 -28 40 -36 33 -3 -4 -6 -15 -6 -25 0 -10 -6 -19 -12 -19 -7 -1 -20 -2
-28 -3 -22 -2 -31 16 -17 34 9 12 9 13 -2 3 -7 -6 -20 -9 -28 -6 -13 5 -13 2
-4 -14 10 -20 7 -21 -127 -27 -160 -7 -163 -7 -156 -17 3 -5 -12 -11 -33 -15
-52 -8 -124 -45 -137 -69 -6 -11 -13 -22 -16 -25 -14 -14 -30 -52 -30 -70 0
-12 -4 -18 -10 -15 -15 9 -12 -29 5 -61 8 -16 15 -24 15 -19 0 6 6 3 13 -6 7
-9 18 -18 26 -20 19 -7 40 -75 33 -112 -3 -18 -5 -51 -6 -74 0 -23 -4 -39 -8
-37 -4 3 -5 -1 -3 -8 6 -14 -12 -109 -61 -320 l-29 -128 -164 0 c-129 0 -161
3 -153 13 10 12 37 101 46 149 2 15 7 31 10 36 3 5 7 22 10 38 3 16 13 54 21
84 9 30 20 76 25 102 5 27 12 53 15 58 4 6 8 63 11 128 3 90 0 124 -11 145 -9
17 -14 52 -13 90 4 121 -39 147 -239 149 -156 1 -202 -11 -230 -60 l-17 -29
-21 31 c-34 51 -65 60 -205 61 -98 0 -135 -4 -173 -18 -58 -23 -69 -43 -97
-168 -12 -51 -26 -99 -31 -106 -6 -6 -8 -16 -5 -21 3 -5 -1 -9 -9 -9 -8 0 -15
4 -15 9 0 19 -71 151 -100 186 -29 35 -38 70 -23 86 11 10 16 36 18 93 1 29
-1 50 -5 48 -9 -5 -50 50 -50 67 0 7 -14 29 -31 48 -17 19 -28 29 -24 23 3 -7
1 -13 -4 -13 -6 0 -11 5 -11 11 0 8 -4 8 -14 0 -11 -9 -15 -9 -18 0 -5 15 -48
-10 -48 -28 0 -7 -6 -13 -12 -14 -7 0 15 -10 49 -23 87 -32 115 -52 111 -79
-4 -30 -44 -34 -71 -8 -32 29 -71 41 -133 41 -34 0 -54 4 -54 12 0 6 -3 8 -6
5 -4 -4 -1 -14 6 -22 11 -13 10 -18 -8 -31 -12 -8 -22 -20 -22 -25 0 -25 -49
-57 -112 -72 -93 -22 -201 -69 -281 -122 -38 -25 -71 -45 -73 -45 -2 0 -3 29
-2 64 3 72 -14 106 -63 132 -27 14 -55 14 -243 5 -117 -6 -227 -11 -246 -11
-39 0 -39 1 -107 140 -20 41 -38 69 -41 62 -2 -7 2 -20 9 -28 10 -13 10 -17 0
-24 -9 -5 -10 -10 -2 -14 14 -9 14 -26 1 -26 -5 0 -10 7 -10 15 0 8 -5 15 -12
15 -6 0 -3 7 8 15 17 13 17 14 2 15 -10 0 -18 -4 -18 -10 0 -11 -32 -1 -42 14
-5 7 -8 5 -8 -4 0 -9 -6 -4 -13 10 -17 32 -16 82 2 88 9 3 11 0 6 -8 -5 -8 -4
-11 3 -6 10 6 1 60 -12 74 -3 2 4 18 15 34 15 20 17 29 8 28 -26 -4 -40 0 -35
9 4 5 0 11 -6 14 -12 4 -4 9 42 24 12 4 11 7 -5 19 -17 13 -18 16 -5 24 13 9
13 10 0 10 -9 0 -20 16 -27 38 -11 33 -10 39 7 53 20 17 24 31 35 132 6 44 4
57 -6 57 -8 0 -5 6 7 16 16 13 16 15 2 10 -10 -3 -20 -1 -23 4 -5 9 15 15 37
11 4 0 14 12 23 28 8 16 23 32 32 34 10 3 -712 5 -1604 6 l-1623 1 0 -4925z
m6747 4900 c0 -8 -4 -12 -9 -9 -5 3 -6 10 -3 15 9 13 12 11 12 -6z m67 -205
c-6 -6 -15 -5 -24 1 -13 9 -12 10 3 5 9 -3 17 0 17 6 0 6 3 8 7 5 4 -4 2 -12
-3 -17z m-3684 -15 c0 -8 -4 -15 -10 -15 -5 0 -10 7 -10 15 0 8 5 15 10 15 6
0 10 -7 10 -15z m3607 -59 c-15 -12 -17 -18 -7 -35 8 -16 8 -26 -2 -39 -12
-16 -19 -18 -45 -13 -5 0 -8 14 -9 31 -1 16 2 27 7 24 4 -2 16 7 26 20 10 14
25 25 33 25 12 0 11 -3 -3 -13z m57 -32 c5 -14 4 -15 -9 -4 -17 14 -19 20 -6
20 5 0 12 -7 15 -16z m-3744 -64 c0 -5 -5 -10 -11 -10 -5 0 -7 5 -4 10 3 6 8
10 11 10 2 0 4 -4 4 -10z m3705 -50 c-3 -5 -11 -10 -16 -10 -6 0 -7 5 -4 10 3
6 11 10 16 10 6 0 7 -4 4 -10z m75 -4 c0 -8 -8 -13 -17 -11 -10 2 -20 4 -23 4
-7 2 23 21 33 21 4 0 7 -6 7 -14z m-49 -59 c-1 -12 -15 -9 -19 4 -3 6 1 10 8
8 6 -3 11 -8 11 -12z m80 -32 c11 6 11 5 2 -5 -12 -14 -33 -6 -33 13 0 8 3 7
9 -2 5 -8 14 -10 22 -6z m-3761 -31 c0 -8 -7 -14 -15 -14 -10 0 -14 9 -13 24
2 19 5 22 15 14 7 -6 13 -17 13 -24z m5274 12 c73 -30 135 -111 107 -139 -8
-8 -11 -7 -11 1 0 7 -5 12 -10 12 -6 0 -26 15 -45 33 -41 40 -123 86 -157 89
-14 1 -25 8 -25 16 0 11 11 13 54 8 30 -3 69 -12 87 -20z m-1557 -2 c-3 -3
-12 -4 -19 -1 -8 3 -5 6 6 6 11 1 17 -2 13 -5z m-3717 -44 c0 -5 -2 -10 -4
-10 -3 0 -8 5 -11 10 -3 6 -1 10 4 10 6 0 11 -4 11 -10z m49 -120 c33 0 54
-20 41 -39 -6 -10 -28 -14 -77 -12 -37 1 -83 -3 -101 -8 -33 -10 -62 -6 -62 9
0 13 66 40 115 47 31 4 44 10 41 18 -2 7 -2 16 2 20 4 4 8 -3 10 -14 3 -16 11
-21 31 -21z m5172 7 c18 -12 46 -41 62 -64 46 -65 48 -171 3 -133 -8 6 -25 34
-39 63 -24 50 -42 72 -97 116 -21 18 -23 22 -10 31 23 15 44 12 81 -13z
m-5760 -124 c13 -16 12 -17 -3 -4 -17 13 -22 21 -14 21 2 0 10 -8 17 -17z
m4269 -13 c-9 -6 -9 -9 1 -13 8 -3 -2 -5 -21 -5 -19 0 -28 2 -20 5 8 3 19 12
23 20 5 7 13 11 19 7 7 -4 6 -9 -2 -14z m54 -5 c-4 -8 -12 -15 -20 -15 -20 0
-17 18 4 23 9 3 18 5 19 6 1 0 0 -6 -3 -14z m89 -12 c-7 -2 -21 -2 -30 0 -10
3 -4 5 12 5 17 0 24 -2 18 -5z m-4313 -58 c13 -14 21 -25 18 -25 -2 0 -15 11
-28 25 -13 14 -21 25 -18 25 2 0 15 -11 28 -25z m5488 -21 c10 -18 5 -45 -34
-184 -13 -46 -31 -91 -39 -100 -12 -12 -48 -16 -168 -18 -84 -2 -155 -7 -159
-10 -4 -4 -55 -225 -114 -492 -59 -267 -111 -491 -117 -497 -14 -18 -266 -18
-291 0 -16 12 -12 37 78 404 109 444 136 559 136 574 0 6 -46 10 -122 9 -68
-1 -131 -1 -140 -1 -14 1 -18 10 -18 44 0 46 36 217 48 228 4 4 203 17 442 29
239 11 444 22 455 24 11 2 23 4 27 5 4 0 11 -6 16 -15z m-4322 -9 c3 -8 -8
-63 -25 -122 -48 -163 -47 -163 -90 -164 -20 -1 -94 -4 -166 -8 l-129 -6 -8
-35 c-4 -19 -50 -228 -102 -465 -52 -236 -97 -445 -101 -463 -8 -41 -19 -43
-180 -40 l-130 3 -3 25 c-2 14 31 162 72 330 79 322 143 592 148 624 3 19 -3
20 -92 17 -52 -1 -105 -5 -117 -8 -20 -4 -26 2 -46 46 l-24 51 20 90 c17 75
24 91 41 95 25 5 141 11 466 25 135 6 252 13 260 14 8 2 57 4 108 5 73 1 94
-2 98 -14z m732 -40 c106 -48 168 -137 196 -284 20 -104 20 -184 1 -297 -53
-310 -205 -544 -421 -646 -174 -82 -392 -73 -520 22 -119 87 -177 290 -145
510 33 225 173 467 333 580 202 142 403 184 556 115z m2602 24 c0 -20 -41
-170 -61 -225 -32 -86 -30 -85 -280 -77 l-217 6 -26 -112 c-14 -61 -26 -114
-26 -116 0 -3 79 -5 175 -5 138 0 177 -3 181 -13 7 -20 -44 -219 -61 -236 -12
-12 -38 -14 -132 -11 -65 2 -140 4 -167 4 l-49 1 -22 -100 c-17 -73 -20 -102
-11 -108 6 -4 117 -7 246 -6 l235 3 -1 -30 c-3 -57 -47 -246 -61 -260 -13 -12
-71 -14 -391 -8 -208 3 -383 7 -389 10 -21 6 -15 45 52 342 93 407 140 626
169 786 14 76 28 141 31 145 6 6 303 15 638 19 114 1 167 -1 167 -9z m-1866
-21 c8 -13 0 -60 -32 -195 -23 -98 -76 -324 -117 -503 -81 -347 -109 -463
-125 -522 l-11 -38 -134 0 c-74 0 -136 4 -139 8 -3 5 1 37 9 73 7 35 54 260
104 499 156 741 141 684 176 692 17 3 81 5 144 5 95 -2 116 -5 125 -19z m492
1 c8 -7 3 -44 -17 -132 -38 -166 -195 -786 -208 -820 l-11 -27 255 0 c139 0
256 -4 259 -8 4 -7 -16 -108 -49 -249 -6 -26 -61 -45 -110 -38 -16 2 -184 4
-373 4 -302 1 -343 3 -349 17 -3 8 20 122 51 252 30 130 92 388 135 572 44
184 83 354 87 377 7 45 16 58 49 66 30 8 268 -4 281 -14z m-3611 -262 c33 -11
73 -29 88 -39 25 -18 34 -19 72 -9 24 6 68 11 99 11 l54 0 12 -69 c16 -85 9
-253 -13 -303 -12 -28 -23 -38 -49 -43 -18 -4 -67 -24 -108 -45 -41 -20 -87
-40 -103 -44 -37 -9 -67 9 -67 40 0 14 -4 22 -10 19 -15 -10 -12 -46 7 -67 29
-32 91 -24 190 27 48 25 91 45 96 45 4 0 -1 -13 -12 -29 -30 -41 -27 -55 7
-37 45 24 111 86 148 140 23 32 33 42 29 26 -25 -88 -81 -171 -135 -202 -46
-26 -49 -35 -17 -44 l24 -5 -44 -87 c-24 -48 -53 -126 -64 -173 -27 -110 -46
-141 -111 -179 -96 -55 -175 -73 -296 -67 -181 8 -300 61 -443 195 -117 110
-191 229 -203 327 -3 25 -9 65 -12 90 l-5 46 -35 -7 c-144 -27 -277 191 -219
357 60 170 236 126 305 -77 11 -32 20 -72 20 -90 0 -18 4 -35 9 -38 4 -3 31
34 58 82 27 48 63 109 80 135 l30 49 -2 -67 c-2 -51 -7 -70 -19 -77 -25 -14
-19 -31 9 -24 20 5 25 3 25 -11 0 -40 88 -193 110 -193 4 0 7 35 7 78 0 86 9
126 25 116 6 -4 25 -39 43 -78 39 -87 75 -130 128 -157 37 -20 39 -20 32 -2
-41 90 18 351 106 473 34 47 38 47 154 7z m-413 -116 c-4 -73 11 -149 43 -218
36 -79 21 -64 -21 20 -20 39 -44 81 -54 92 -18 19 -18 22 3 93 11 39 23 72 27
72 3 0 3 -27 2 -59z m6803 -103 c109 -24 222 -100 309 -209 112 -141 165 -300
173 -529 6 -164 -7 -257 -58 -418 -37 -115 -111 -228 -193 -293 l-58 -47 -61
28 c-115 52 -339 109 -512 130 -49 6 -95 15 -101 21 -21 17 -101 142 -138 216
-103 206 -111 429 -24 669 53 147 175 306 285 371 129 75 235 92 378 61z m410
-89 c143 -23 438 -95 526 -128 79 -30 91 -47 97 -134 5 -85 -9 -121 -60 -161
-38 -28 -137 -69 -223 -91 -61 -15 -202 -20 -220 -7 -6 4 -19 43 -29 87 -37
164 -112 304 -217 407 -53 52 -56 57 -31 53 15 -3 86 -14 157 -26z m-993 -106
c-16 -21 -46 -66 -66 -100 -20 -35 -40 -63 -43 -63 -14 0 6 91 26 116 22 28
91 83 104 84 5 0 -5 -17 -21 -37z m-844 -136 c8 -10 12 -35 11 -57 -2 -21 0
-42 3 -45 8 -8 -17 -102 -32 -121 -7 -8 -9 -14 -5 -14 26 0 -11 -14 -46 -17
l-41 -4 6 35 c4 20 1 54 -6 77 -11 39 -10 43 11 60 13 11 19 23 15 30 -4 8 -3
9 4 5 8 -5 12 0 12 13 0 11 7 26 15 34 8 8 11 18 7 22 -4 4 2 5 13 3 11 -1 26
-11 33 -21z m-5850 -70 c6 -6 14 -26 18 -42 10 -43 68 -157 98 -192 18 -22 30
-57 45 -136 23 -116 44 -177 61 -177 6 0 34 24 61 53 l50 52 -4 -72 c-4 -63
-2 -73 12 -73 19 0 54 22 93 58 l26 24 76 -18 c42 -11 76 -22 76 -26 0 -3 -16
-30 -35 -60 -54 -80 -151 -276 -169 -340 -15 -53 -19 -58 -51 -64 -52 -9 -187
14 -252 43 l-57 26 -36 -19 c-35 -20 -37 -20 -82 -1 l-45 18 -18 82 c-10 45
-18 100 -18 122 0 83 74 279 143 381 36 52 31 75 -6 29 -22 -26 -101 -180
-132 -256 -10 -25 -14 -26 -64 -21 -61 5 -156 35 -177 56 -12 13 -10 30 23
130 85 266 209 434 322 436 17 0 36 -6 42 -13z m2227 5 c6 -4 11 -16 11 -27 1
-11 5 -38 9 -60 4 -22 8 -49 10 -60 1 -11 5 -30 9 -41 5 -17 2 -23 -14 -27
-22 -6 -23 -15 -6 -87 3 -14 7 -43 10 -65 3 -22 14 -66 25 -99 12 -32 18 -62
15 -67 -3 -5 0 -9 6 -9 6 0 15 -11 19 -23 13 -34 109 -146 135 -158 37 -17 50
-49 51 -127 0 -39 -3 -72 -7 -72 -7 0 -5 -20 3 -35 4 -5 9 -23 13 -39 6 -23 9
-27 17 -15 7 11 9 10 8 -6 -1 -24 -17 -75 -18 -58 -1 6 -10 15 -21 18 -11 4
-33 18 -50 31 l-29 25 -29 -32 c-22 -24 -33 -30 -50 -25 -12 4 -22 13 -22 19
0 15 -35 38 -44 30 -9 -9 -7 -25 2 -19 5 3 9 -1 9 -8 0 -8 -6 -12 -14 -9 -10
4 -11 -2 -7 -25 l6 -31 -46 4 c-26 1 -50 5 -53 8 -9 10 31 56 50 57 9 0 17 7
17 15 0 8 5 15 12 15 9 0 9 3 0 12 -7 7 -12 25 -12 41 0 38 -22 30 -32 -12 -9
-33 -53 -111 -96 -168 -29 -39 -16 -44 18 -8 13 14 25 23 27 21 7 -6 -32 -64
-71 -106 -38 -41 -39 -46 -26 -117 0 -1 9 -7 20 -13 15 -8 29 -7 55 6 19 9 35
22 35 28 0 16 42 51 57 48 6 -1 14 2 17 7 4 5 38 7 81 4 65 -5 75 -4 81 12 4
10 2 26 -4 36 -7 10 -9 25 -6 34 4 9 -2 25 -12 37 -11 12 -13 18 -6 14 6 -4
19 -1 27 7 12 13 12 15 -5 20 -22 6 -24 15 -11 36 7 11 15 6 40 -20 17 -19 31
-38 31 -42 0 -5 7 -15 15 -24 12 -11 13 -19 5 -28 -8 -10 -8 -19 -1 -33 8 -14
6 -40 -5 -93 -22 -106 -100 -440 -124 -532 -17 -61 -21 -105 -19 -208 1 -87 5
-134 13 -142 7 -7 11 -17 9 -23 -6 -19 20 -23 212 -36 l184 -12 25 27 c13 14
21 28 18 31 -3 3 0 6 6 6 6 0 14 9 17 20 3 11 13 20 21 20 8 0 24 9 35 19 24
22 59 20 74 -5 6 -10 18 -26 28 -36 9 -10 16 -20 15 -22 -7 -11 47 -69 75 -81
35 -15 143 -11 163 6 7 6 19 7 25 3 7 -4 9 -3 6 3 -4 6 0 13 7 16 13 5 12 14
-4 59 -21 59 -20 62 19 82 l27 15 29 -65 c16 -35 33 -64 37 -64 5 0 6 -5 2
-12 -5 -8 -2 -9 9 -5 11 4 17 1 17 -8 0 -8 9 -15 20 -15 11 0 20 -4 20 -9 0
-5 14 -11 31 -15 17 -3 28 -9 25 -14 -5 -9 27 -36 39 -33 4 1 13 -6 20 -15 11
-16 16 -17 40 -6 21 10 30 10 35 1 6 -8 9 -8 14 0 4 6 12 9 17 5 5 -3 16 -1
23 5 7 6 22 9 34 6 12 -2 22 0 22 5 0 5 10 6 23 4 12 -3 73 -8 136 -10 87 -4
116 -2 122 8 6 8 9 9 9 2 0 -16 76 3 112 28 14 10 32 18 40 18 7 0 27 24 44
53 17 28 37 51 44 49 6 -1 18 3 26 9 8 6 26 13 42 14 15 1 37 5 50 9 13 5 22
3 22 -4 0 -6 11 -8 24 -6 22 4 24 0 30 -47 9 -68 20 -84 58 -92 18 -4 38 -12
45 -17 13 -11 203 -15 220 -5 6 4 14 3 18 -2 8 -14 75 28 75 47 0 16 38 79 76
127 11 15 14 32 9 63 -4 28 -3 42 5 42 6 0 9 4 5 9 -3 5 3 11 12 13 21 5 63
-19 63 -36 0 -6 11 -23 25 -38 14 -15 25 -30 25 -33 0 -3 11 -16 25 -29 14
-13 25 -31 25 -40 0 -10 5 -14 12 -10 6 4 8 3 5 -3 -3 -5 2 -32 12 -59 18 -45
22 -50 61 -57 33 -7 50 -5 75 9 30 16 34 16 81 -1 62 -23 60 -21 39 -45 -19
-21 -18 -21 13 -48 18 -15 32 -33 32 -39 0 -6 12 -21 27 -33 49 -39 142 -7
199 68 38 49 40 128 5 166 -13 14 -28 23 -32 20 -14 -8 -11 1 16 47 36 63 33
95 -4 38 -51 -79 -93 -112 -159 -122 -43 -7 -41 8 6 32 48 25 82 71 82 113 0
19 7 44 16 56 8 12 12 22 9 22 -3 0 1 12 9 28 15 29 28 61 31 77 4 30 18 65
26 65 5 0 9 8 9 18 0 9 9 23 20 30 11 7 20 17 20 23 0 5 -4 7 -10 4 -5 -3 -10
-3 -10 0 0 3 14 11 30 16 17 6 30 15 30 20 0 5 4 9 9 9 11 0 83 -144 79 -157
-2 -4 8 -30 21 -56 13 -26 21 -57 18 -68 -4 -15 15 -41 79 -107 46 -48 84 -96
84 -106 0 -18 1 -18 18 -2 18 15 20 15 42 -14 13 -16 27 -30 33 -30 5 0 25
-13 44 -30 18 -16 37 -30 42 -30 21 0 159 53 216 83 36 19 65 33 65 30 0 -2
-7 -27 -16 -54 -16 -47 -15 -101 1 -155 6 -18 -3 -25 -67 -54 -104 -46 -313
-113 -448 -143 -196 -44 -546 -87 -704 -87 -53 0 -53 0 -72 42 -10 24 -45 70
-76 104 -62 66 -135 102 -221 109 -23 2 -61 11 -84 19 -227 84 -681 18 -988
-144 l-90 -47 -265 49 c-607 111 -859 143 -1209 157 -119 5 -218 8 -221 6 -5
-3 -476 -18 -557 -18 -52 1 -89 23 -106 66 l-14 32 -5 -27 c-3 -14 0 -42 7
-61 11 -31 9 -36 -11 -56 -13 -13 -28 -20 -34 -16 -5 3 -7 0 -4 -9 4 -10 0
-14 -11 -12 -21 3 -39 32 -26 41 12 7 -19 62 -58 101 l-29 29 24 28 c30 36 31
71 1 101 -28 28 -167 52 -256 43 -52 -4 -56 -3 -58 17 -2 27 -11 91 -13 91 -1
0 -3 12 -5 27 -2 16 -7 38 -11 50 -4 13 -7 30 -5 40 1 9 -3 19 -9 23 -5 3 -10
24 -10 46 0 22 -5 39 -11 39 -6 0 -9 6 -6 14 3 8 -1 20 -9 26 -8 7 -14 25 -14
41 0 15 -4 30 -10 34 -5 3 -7 12 -4 19 3 7 -6 42 -20 76 -14 34 -24 66 -21 69
2 4 0 13 -5 21 -5 8 -5 21 1 31 7 13 5 18 -8 21 -13 2 -17 14 -18 51 0 45 1
48 22 42 18 -4 23 -1 23 12 0 15 -2 16 -10 3 -6 -9 -10 -10 -10 -3 0 6 5 15
11 19 6 3 9 14 7 23 -4 15 26 54 35 45 2 -2 4 2 5 9 4 46 20 83 40 92 23 10
31 55 10 55 -7 0 -3 7 9 15 15 11 21 25 20 51 -1 19 4 38 10 42 6 4 13 36 16
71 2 35 9 66 17 71 8 5 8 10 2 14 -13 8 -4 45 19 75 11 13 16 28 12 34 -3 6
-1 7 5 3 14 -9 55 18 44 28 -4 5 0 7 8 6 8 -1 24 -2 35 -1 17 1 14 5 -13 22
l-32 21 32 29 c18 16 29 29 24 29 -5 0 -3 7 4 15 7 9 22 12 39 9 27 -6 28 -4
29 38 1 23 7 45 12 46 6 2 7 8 4 14 -6 9 12 55 26 68 3 3 12 23 19 46 14 44
51 74 93 74 21 1 22 2 5 14 -17 13 -17 14 0 21 10 4 38 9 62 11 l44 3 -5 -94
c-3 -52 -10 -100 -15 -107 -6 -7 -9 -26 -7 -43 2 -16 5 -55 7 -85 3 -63 26
-103 68 -122 16 -7 29 -19 29 -25 0 -7 7 -13 15 -13 9 0 18 -7 21 -15 4 -8 12
-15 20 -15 7 0 17 -8 23 -17 6 -12 13 -14 23 -7 7 6 20 10 28 9 8 0 17 3 20 7
3 4 29 1 58 -6 29 -8 62 -13 75 -11 22 3 100 19 127 26 24 7 69 61 76 93 3 17
11 37 16 43 6 7 8 19 5 26 -3 7 1 20 7 29 7 9 11 30 10 47 -1 17 1 31 5 31 9
0 31 62 36 100 2 16 9 38 15 49 5 11 9 24 8 28 -4 17 14 105 28 131 13 25 12
28 -6 36 -23 11 -26 33 -6 61 7 11 14 23 14 28 2 20 27 77 34 77 4 0 7 3 7 8
-5 30 13 42 36 24z m5981 -244 c-14 -104 -88 -505 -107 -583 -55 -219 -140
-362 -276 -466 -32 -24 -61 -48 -65 -54 -4 -5 -8 -42 -8 -80 0 -148 -55 -278
-165 -394 -85 -89 -95 -106 -95 -160 0 -49 8 -71 26 -71 10 0 14 14 14 52 0
37 6 61 23 85 12 18 25 33 28 33 4 0 9 -15 13 -32 3 -18 13 -58 21 -88 21 -78
19 -165 -5 -216 -45 -91 -200 -206 -356 -263 -266 -97 -579 -74 -661 48 -30
45 -29 88 5 166 l27 64 106 -6 c63 -3 139 -1 190 6 119 17 129 21 129 42 0 23
5 22 -95 4 -95 -17 -205 -19 -295 -5 -196 31 -427 148 -563 284 -54 55 -125
156 -101 144 185 -90 253 -109 449 -129 139 -14 321 -8 480 16 349 53 573 215
615 447 13 71 -1 164 -34 224 l-23 41 67 61 c37 34 85 87 106 119 87 130 146
355 148 564 l1 127 110 4 c90 4 126 10 195 35 47 17 89 31 94 32 5 1 5 -22 2
-51z m-7940 -218 l-41 -39 -12 28 c-6 15 -15 56 -19 91 l-7 64 60 -53 61 -52
-42 -39z m138 -47 c-27 -20 -34 -16 -34 17 l0 30 26 -17 c25 -16 25 -17 8 -30z
m412 -147 c-4 -55 -10 -116 -13 -134 -5 -33 -6 -33 -47 -26 -22 3 -58 13 -80
22 -36 14 -38 17 -32 51 3 20 6 71 6 113 l0 77 78 3 c42 2 81 1 86 -1 4 -2 5
-49 2 -105z m-1036 11 c33 -1 60 -4 60 -7 0 -3 -7 -16 -16 -28 -39 -55 -244 2
-244 68 0 29 10 29 75 -2 46 -21 81 -30 125 -31z m3482 -2 c88 -28 147 -79
188 -159 88 -173 32 -402 -140 -577 -41 -42 -88 -85 -105 -97 l-30 -21 49 -48
c88 -87 175 -225 162 -258 -5 -14 -250 -145 -271 -145 -7 0 -37 44 -65 98 -69
128 -121 197 -171 223 -69 35 -80 27 -101 -71 -10 -47 -25 -117 -33 -157 -11
-47 -22 -73 -33 -78 -26 -10 -273 -34 -289 -28 -17 7 -16 23 2 86 16 56 54
216 140 587 30 129 60 245 66 256 6 12 9 39 5 60 -13 83 -17 224 -7 242 19 35
107 64 321 105 60 12 256 1 312 -18z m1386 -11 c2 -12 -22 -123 -52 -245 -30
-123 -74 -303 -96 -399 -22 -96 -54 -218 -70 -270 -71 -230 -246 -375 -481
-395 -253 -23 -445 121 -442 330 1 41 18 146 42 255 22 102 65 297 95 434 30
137 59 252 63 256 12 11 286 31 295 22 5 -5 -12 -101 -37 -215 -49 -223 -110
-549 -119 -637 -7 -71 10 -118 53 -147 42 -29 92 -29 148 -2 67 33 84 73 137
324 106 507 145 687 151 693 10 11 120 19 220 18 84 -1 90 -2 93 -22z m1143
-5 c9 -16 8 -23 -32 -179 -16 -63 -54 -216 -84 -340 -96 -388 -186 -724 -200
-738 -10 -11 -34 -11 -130 -2 -65 6 -121 13 -126 15 -4 3 -13 22 -20 43 -23
70 -186 477 -212 527 -30 59 -23 75 -67 -160 -86 -454 -79 -431 -126 -439 -59
-12 -255 5 -261 21 -6 15 80 421 164 778 24 105 57 245 72 313 16 68 31 125
34 128 3 3 59 8 124 11 117 6 119 5 134 -18 29 -46 212 -458 264 -594 9 -24
54 153 111 430 20 99 40 188 45 197 11 20 48 24 198 22 76 -1 105 -5 112 -15z
m-6044 -57 l73 3 5 -45 c15 -108 49 -258 70 -307 26 -58 27 -58 106 -18 17 9
38 15 47 13 9 -2 -14 -16 -51 -32 -37 -15 -67 -32 -67 -37 0 -13 7 -12 79 17
91 37 152 31 198 -20 19 -20 33 -46 33 -61 0 -14 5 -25 10 -25 27 0 -8 90 -43
113 -12 7 -37 19 -56 25 -18 7 -45 23 -59 37 -14 15 -36 25 -51 24 -23 0 -24
-1 -6 -8 17 -7 13 -11 -29 -29 -27 -12 -52 -22 -57 -22 -19 0 -7 27 30 68 29
31 46 42 68 42 31 0 81 -32 112 -72 11 -14 45 -42 75 -63 l55 -38 29 19 c123
78 207 142 254 192 l54 59 35 -18 c19 -10 51 -21 71 -24 41 -7 41 -14 1 -77
-26 -39 -158 -148 -282 -233 -96 -66 -126 -81 -178 -90 -43 -7 -43 -6 -43 23
0 32 -39 109 -67 134 -10 9 -29 19 -41 23 -20 6 -17 1 15 -30 l38 -37 -36 21
c-20 12 -45 21 -55 20 -11 0 -4 -5 14 -10 38 -11 88 -75 97 -123 4 -17 1 -45
-5 -61 l-12 -30 -13 43 c-18 59 -39 89 -78 108 -32 16 -32 16 10 -27 49 -51
78 -121 63 -150 -15 -28 -27 -23 -40 16 -6 19 -25 46 -43 61 -30 25 -34 26
-122 20 -108 -8 -130 2 -195 87 -71 95 -160 349 -176 504 l-7 62 49 -25 c41
-21 60 -25 121 -22z m6683 -16 c0 -11 -19 -15 -25 -6 -3 5 1 10 9 10 9 0 16
-2 16 -4z m-49 -40 c-8 -9 -8 -16 -2 -20 5 -4 14 1 19 10 6 10 16 15 25 11 16
-6 17 -23 3 -45 -5 -8 -4 -18 3 -25 6 -6 11 -17 11 -25 0 -8 8 -21 18 -28 14
-11 14 -13 2 -14 -11 0 -12 -2 -2 -8 7 -5 -18 -15 -65 -26 -121 -28 -241 -72
-325 -121 l-78 -44 -13 32 c-18 43 -8 175 12 162 5 -2 12 2 15 10 4 12 10 13
24 6 12 -6 22 -7 29 0 6 6 17 1 32 -12 22 -20 23 -20 37 -3 9 11 13 14 10 7
-7 -14 48 -28 66 -17 8 5 7 1 -2 -11 -14 -17 -13 -18 7 -13 16 4 20 2 16 -9
-9 -23 20 -11 32 13 30 60 100 166 114 174 22 13 25 12 12 -4z m-2174 -48 c-3
-7 -5 -2 -5 12 0 14 2 19 5 13 2 -7 2 -19 0 -25z m-3460 -16 c41 -4 44 -7 41
-31 -4 -31 -25 -37 -82 -21 -60 17 -80 34 -72 64 6 24 7 24 37 9 17 -9 51 -18
76 -21z m3437 -88 c-9 -43 -20 -86 -26 -94 -6 -11 -7 -9 -3 8 8 27 -11 30 -20
2 -13 -41 -39 -16 -41 40 -1 38 27 105 48 113 7 2 21 0 31 -5 13 -7 17 -5 17
8 0 10 2 15 5 12 3 -3 -2 -40 -11 -84z m1093 -2 c2 -37 2 -37 -12 -12 -18 31
-19 61 -2 55 6 -3 13 -22 14 -43z m1603 -52 c214 -34 416 -87 502 -131 82 -42
123 -128 116 -247 -7 -137 -99 -264 -244 -339 -175 -91 -348 -126 -629 -126
-218 -1 -334 15 -468 63 -165 60 -257 144 -293 268 -20 69 -13 117 28 195 84
157 317 276 648 330 68 11 227 5 340 -13z m-4640 -10 c0 -5 -4 -10 -10 -10 -5
0 -10 5 -10 10 0 6 5 10 10 10 6 0 10 -4 10 -10z m1879 -245 c-17 -78 -25
-102 -31 -89 -6 15 -8 13 -5 -8 3 -19 0 -25 -10 -21 -8 3 -13 14 -10 24 3 11
1 22 -4 25 -11 6 -1 73 12 90 5 6 6 14 2 17 -3 4 -1 8 5 8 7 1 18 2 25 3 7 1
11 11 9 25 -2 15 0 21 7 17 6 -4 11 0 11 10 0 10 3 15 6 11 3 -3 -4 -54 -17
-112z m-3477 -187 c20 -40 45 -104 55 -143 10 -38 27 -84 39 -102 28 -42 76
-216 118 -429 18 -94 39 -180 45 -190 11 -17 12 -16 8 8 -4 24 1 29 35 43 21
8 49 15 63 15 23 0 24 -3 22 -51 -2 -39 2 -54 16 -64 33 -24 60 -4 76 54 13
49 15 51 50 51 47 0 85 -20 89 -46 7 -50 -127 -128 -292 -169 -54 -14 -107
-25 -118 -25 -10 0 -41 16 -69 35 -29 19 -68 38 -89 41 l-37 6 -7 70 c-7 79
-54 299 -92 432 -33 117 -59 166 -140 265 -37 45 -63 85 -58 89 5 4 35 25 68
47 32 21 81 65 109 97 34 38 54 54 62 48 6 -5 27 -42 47 -82z m3382 -110 c-5
-8 -2 -9 9 -5 10 3 17 2 17 -4 0 -17 -48 -59 -67 -58 -10 0 -13 3 -7 5 7 3 10
14 7 24 -3 12 0 20 7 20 7 0 10 7 6 15 -4 10 1 15 15 15 13 0 18 -4 13 -12z
m-4410 -47 c38 -23 129 -51 168 -51 33 0 34 -5 8 -47 -40 -66 -173 -120 -466
-188 -183 -42 -214 -53 -214 -72 0 -11 -7 -13 -28 -8 -19 4 -33 1 -40 -8 -9
-10 -4 -13 23 -13 45 0 52 -8 61 -68 7 -48 6 -49 -17 -43 -13 4 -38 7 -55 7
l-32 0 -6 73 c-19 225 -19 233 -2 265 9 18 24 32 34 32 9 0 53 12 97 25 44 14
156 41 250 60 93 18 171 39 173 44 5 15 10 14 46 -8z m-620 -148 c-18 -50 -17
-145 1 -213 8 -30 15 -76 15 -101 0 -39 -4 -49 -25 -63 -28 -19 -31 -33 -10
-60 13 -17 20 -18 70 -8 85 17 96 7 75 -70 -11 -37 -33 -68 -51 -68 -5 0 -26
16 -47 35 -50 45 -99 146 -130 271 l-25 101 32 47 c18 26 42 74 53 107 14 43
25 59 38 59 16 0 17 -3 4 -37z m4507 -379 c13 -14 47 -39 76 -56 63 -35 75
-49 63 -68 -6 -8 -10 -10 -10 -4 0 6 -16 14 -35 17 -38 6 -155 90 -155 111 0
34 29 34 61 0z m862 -17 c3 -8 -1 -14 -8 -14 -7 0 -11 6 -8 14 3 7 6 13 8 13
2 0 5 -6 8 -13z m-1783 -414 c0 -5 24 -7 52 -7 l53 2 -50 -7 c-27 -5 -46 -9
-42 -9 5 -1 5 -7 1 -14 -5 -7 -11 -5 -21 7 -16 22 -17 35 -3 35 6 0 10 -3 10
-7z m3964 -305 c3 6 20 8 38 6 80 -8 88 -12 88 -51 0 -27 17 -38 35 -23 8 6
21 10 30 8 14 -2 13 -8 -9 -33 -14 -16 -26 -34 -27 -40 0 -5 -2 -20 -5 -32 -4
-23 11 -33 18 -11 5 14 38 20 38 7 0 -5 -3 -9 -7 -9 -12 0 -7 -61 5 -69 7 -4
8 -12 2 -21 -8 -13 -10 -13 -10 1 0 9 -7 20 -16 23 -11 4 -14 0 -12 -17 2 -15
-2 -21 -11 -19 -12 3 -12 1 -1 -13 8 -9 22 -14 31 -12 18 5 33 -16 21 -28 -4
-4 -8 -11 -8 -16 -1 -5 -2 -12 -3 -16 0 -5 -10 7 -21 25 -22 36 -43 38 -48 4
-3 -18 2 -22 22 -22 14 0 26 -5 26 -11 0 -6 8 -8 19 -4 12 3 21 0 25 -10 3 -8
0 -15 -5 -15 -7 0 -9 -11 -7 -25 3 -13 1 -22 -3 -19 -5 3 -9 12 -9 20 0 8 -9
14 -20 14 -23 0 -50 -52 -31 -58 6 -2 9 -8 5 -13 -3 -5 2 -9 10 -9 8 0 18 5
21 10 4 6 11 8 16 5 5 -4 9 -2 9 4 0 6 7 8 15 5 8 -4 15 -10 15 -15 0 -5 -7
-9 -15 -9 -8 0 -15 -7 -15 -15 0 -8 5 -15 10 -15 22 0 8 -21 -30 -42 -29 -16
-39 -28 -36 -41 2 -9 1 -15 -4 -12 -4 3 -13 -2 -20 -10 -9 -11 -9 -18 3 -30 9
-8 22 -14 29 -13 8 2 12 -4 10 -14 -2 -11 3 -18 14 -18 10 0 14 -5 10 -15 -4
-10 1 -15 14 -15 11 0 20 -5 20 -10 0 -10 -10 -9 -80 10 -18 5 -28 17 -35 44
-6 21 -21 49 -33 63 -12 14 -22 27 -22 30 0 3 -13 20 -29 39 -16 18 -34 41
-39 50 -9 16 -12 16 -29 4 -16 -14 -17 -13 -5 1 15 20 9 39 -23 62 -24 17 -25
17 -31 -8 -3 -14 -3 -32 0 -40 3 -9 2 -14 -3 -11 -5 3 -12 -1 -15 -10 -4 -12
-2 -15 9 -10 8 3 15 2 16 -2 0 -4 3 -16 6 -27 9 -36 11 -74 4 -73 -31 4 -44
-18 -16 -28 17 -7 57 34 51 51 -5 15 31 16 42 2 5 -7 12 -22 15 -35 4 -19 1
-24 -25 -29 l-31 -6 34 -19 c37 -20 36 -20 -66 1 -87 18 -296 50 -425 66 -74
10 -150 25 -186 40 -115 45 -183 58 -293 57 -57 -1 -106 -4 -110 -7 -3 -3 0
-14 5 -23 9 -14 33 -18 135 -23 105 -5 135 -10 199 -35 127 -50 265 -157 355
-274 146 -189 224 -469 212 -755 -15 -340 -117 -620 -288 -787 -95 -93 -98
-94 -213 -47 -54 21 -129 48 -166 60 l-68 20 -24 69 c-25 69 -25 70 -7 122 10
29 18 71 19 94 0 39 1 40 43 50 50 11 50 10 9 149 -16 55 -28 103 -25 108 2 4
22 7 44 7 34 0 40 3 35 18 -2 9 -27 91 -55 181 -28 90 -49 166 -46 169 7 8 8
6 55 -103 49 -114 66 -137 94 -133 41 6 32 55 -43 214 -71 152 -77 161 -145
181 -33 9 -37 26 -7 31 12 2 30 15 42 30 17 22 20 37 16 75 -5 55 -34 93 -81
105 -29 8 -31 12 -38 68 -4 32 -10 113 -12 179 -3 66 -10 139 -16 161 -15 51
-82 120 -136 139 -25 9 -31 14 -18 15 12 0 36 -10 55 -23 64 -43 61 -45 54 25
-4 34 -20 118 -36 186 -16 68 -29 126 -29 128 0 3 9 0 19 -6 40 -21 350 -13
581 16 82 10 142 15 166 15 13 0 29 10 39 25 9 14 19 23 22 21 2 -3 20 1 38 9
19 8 50 14 69 14 19 0 37 4 41 10 9 14 66 7 60 -7 -2 -7 3 -13 11 -13 8 0 12
5 9 10 -10 17 23 42 45 35 11 -4 20 -2 20 4 0 6 7 11 16 11 9 0 13 5 9 13 -4
6 0 4 8 -6 8 -10 18 -14 21 -9z m232 -93 c-3 -8 -1 -15 4 -15 6 0 2 -8 -7 -18
-21 -21 -32 -20 -14 2 9 11 9 15 -1 19 -10 4 -10 8 2 16 20 14 23 14 16 -4z
m-2241 -94 c28 -55 153 -197 223 -255 83 -67 204 -138 266 -156 l44 -12 -5
-54 c-3 -30 -3 -54 0 -54 3 0 16 24 30 53 47 102 135 177 207 177 63 0 130
-57 150 -128 22 -80 4 -213 -38 -281 -69 -112 -169 -161 -247 -121 -45 23 -49
24 -40 10 4 -6 -3 -42 -15 -81 -11 -38 -18 -74 -15 -79 7 -12 -32 -91 -44 -87
-11 3 -102 -133 -95 -144 2 -5 -12 -25 -32 -46 -20 -21 -30 -29 -23 -18 8 11
16 22 19 25 3 3 11 13 19 23 28 36 3 15 -59 -50 -36 -37 -58 -62 -51 -55 8 6
20 12 25 12 13 -1 -23 -23 -40 -26 -7 -1 -47 -26 -90 -55 -146 -98 -346 -144
-524 -121 -170 23 -295 80 -331 152 -10 19 -27 76 -38 125 -33 152 -82 285
-141 386 -59 98 -62 291 -8 406 29 61 116 153 191 203 92 61 262 141 436 204
85 31 161 61 170 66 27 16 40 11 56 -19z m2282 9 c-1 -11 -2 -20 -4 -20 -1 0
-7 9 -13 20 -8 16 -8 20 4 20 9 0 14 -8 13 -20z m-19 -121 c-10 -7 -10 -9 0
-9 6 0 12 -5 12 -12 0 -9 -3 -9 -12 0 -18 18 -19 42 -1 35 12 -5 12 -7 1 -14z
m-1598 -192 c0 -2 -10 -12 -22 -23 l-23 -19 19 23 c18 21 26 27 26 19z m1549
-130 c1 -5 -3 -6 -8 -3 -5 4 -12 0 -14 -6 -3 -7 -6 -1 -6 13 -1 32 11 46 20
22 4 -10 8 -22 8 -26z m-349 -103 c305 -57 518 -118 591 -167 64 -44 74 -67
74 -182 0 -129 -9 -143 -126 -203 -171 -87 -352 -126 -488 -105 l-55 8 -12 66
c-42 230 -139 414 -298 568 -42 40 -76 74 -76 75 0 6 219 -28 390 -60z m-4850
11 c512 -83 933 -509 1021 -1034 20 -115 15 -322 -10 -441 -72 -344 -288 -648
-588 -826 -175 -104 -337 -156 -536 -174 -362 -32 -706 97 -973 364 -190 190
-309 417 -355 676 -19 106 -17 325 4 433 76 382 321 710 663 884 248 127 492
163 774 118z m-1149 -8 c-10 -9 -11 -8 -5 6 3 10 9 15 12 12 3 -3 0 -11 -7
-18z m39 -2 c7 -9 8 -15 2 -15 -5 0 -12 7 -16 15 -3 8 -4 15 -2 15 2 0 9 -7
16 -15z m-46 -37 c-3 -4 -11 -5 -19 -1 -21 7 -19 12 4 10 11 0 18 -5 15 -9z
m56 -27 c0 -6 -4 -13 -10 -16 -5 -3 -10 1 -10 9 0 9 5 16 10 16 6 0 10 -4 10
-9z m73 -40 l26 -40 -39 -31 c-23 -19 -41 -26 -45 -20 -4 6 -1 9 6 8 7 -2 13
2 14 7 0 6 4 15 8 21 4 7 0 17 -8 24 -8 7 -13 16 -10 20 3 5 0 12 -5 15 -7 5
-5 12 7 21 10 7 19 14 19 14 1 0 13 -18 27 -39z m-69 -17 c19 -7 21 -34 3 -34
-14 0 -37 20 -37 32 0 10 13 10 34 2z m4997 -41 c-11 -21 -20 -35 -21 -31 0
12 33 78 38 74 2 -2 -6 -21 -17 -43z m-5051 -108 c-43 -44 -50 -50 -50 -41 0
6 84 86 90 86 2 0 -16 -20 -40 -45z m4820 -63 c3 -3 -8 -2 -25 2 -16 4 -34 12
-40 17 -5 5 6 4 25 -2 19 -7 37 -14 40 -17z m-1701 -177 c0 -5 -6 -1 -14 9 -8
11 -15 16 -16 10 0 -5 -4 1 -10 14 -5 13 -13 21 -18 18 -5 -3 -8 15 -7 39 l1
45 32 -62 c18 -35 32 -67 32 -73z m238 -27 c-3 -8 -6 -5 -6 6 -1 11 2 17 5 13
3 -3 4 -12 1 -19z m23 -22 c0 -3 -4 -8 -10 -11 -5 -3 -10 -1 -10 4 0 6 5 11
10 11 6 0 10 -2 10 -4z m3156 -108 c-9 -78 -98 -589 -131 -756 -14 -67 -42
-163 -62 -213 -66 -167 -218 -364 -335 -438 l-55 -35 -6 -100 c-7 -118 -41
-247 -93 -353 -27 -57 -55 -92 -125 -160 -110 -107 -123 -129 -121 -210 1 -68
6 -83 28 -83 11 0 14 16 14 74 0 60 4 78 22 102 27 35 39 44 50 38 4 -3 20
-44 35 -92 21 -68 27 -107 28 -182 0 -116 -18 -163 -96 -245 -190 -201 -491
-324 -804 -328 -122 -2 -235 9 -235 22 0 4 16 13 35 20 21 7 41 24 50 42 19
36 24 36 36 -1 12 -34 42 -40 88 -15 36 18 41 32 41 115 0 61 -5 77 -42 149
-26 51 -45 76 -49 69 -5 -7 -5 -15 -1 -18 4 -3 8 -16 10 -30 2 -21 -7 -31 -50
-57 -105 -63 -184 -94 -230 -91 l-43 3 3 37 c2 20 -1 45 -7 56 -6 12 -7 22 0
29 12 12 -3 54 -66 188 -63 135 -149 355 -168 435 -22 88 -30 179 -19 215 7
26 13 30 51 33 36 3 281 -42 304 -55 4 -2 -2 -18 -14 -35 -41 -57 -37 -99 23
-238 30 -69 74 -173 98 -233 30 -73 47 -103 52 -93 10 18 -1 48 -14 40 -6 -4
-8 1 -4 12 3 11 -16 73 -48 152 l-53 132 28 0 c70 0 287 35 409 66 251 64 402
159 510 320 70 106 93 187 88 314 -3 90 -7 105 -40 169 l-36 71 41 29 c132 90
251 278 312 488 44 150 58 257 59 433 l1 165 130 0 c123 1 135 2 238 38 59 20
120 43 135 51 15 9 29 15 31 16 2 0 0 -28 -3 -62z m-1646 5 l25 -28 -35 30
c-55 47 -56 48 -35 37 11 -6 31 -23 45 -39z m-1669 -84 c30 -82 32 -111 2 -37
-9 23 -19 36 -21 30 -2 -7 -9 -9 -15 -5 -7 4 -7 1 1 -9 14 -17 4 -30 -28 -35
-8 -1 -16 -7 -18 -12 -2 -6 -11 -11 -19 -11 -12 0 -13 3 -4 13 6 8 8 16 5 20
-3 3 3 3 15 0 20 -5 30 10 14 20 -5 2 -3 2 4 1 6 -2 11 6 10 17 -1 10 -5 19
-9 19 -4 0 -5 7 -2 15 4 8 10 13 14 10 4 -3 6 14 4 37 -4 55 7 37 47 -73z
m1689 24 c55 -60 84 -103 126 -188 68 -140 132 -330 140 -420 9 -96 -23 -186
-125 -358 -98 -164 -180 -275 -257 -347 -117 -110 -146 -124 -211 -99 -61 24
-188 45 -223 38 -33 -7 -89 -58 -116 -104 -13 -23 -34 -12 -34 19 0 33 53 101
100 128 40 23 51 38 28 38 -23 0 -82 -41 -115 -78 l-32 -37 -1 30 c0 35 24 74
64 106 21 16 48 24 95 28 45 4 61 9 52 15 -25 16 -100 9 -136 -13 -45 -27 -45
-12 1 29 34 29 41 31 95 28 43 -2 59 0 59 10 0 7 -13 15 -30 19 -16 3 -30 12
-30 19 0 23 -56 16 -87 -10 -16 -14 -38 -41 -48 -60 -21 -39 -45 -48 -45 -17
0 65 65 141 119 141 59 0 131 -27 227 -85 87 -53 146 -75 95 -36 l-23 18 73
99 c83 111 134 203 189 340 l37 93 -27 69 c-15 38 -64 126 -110 196 l-82 126
34 38 c68 75 108 173 108 264 0 21 4 38 9 38 5 0 42 -35 81 -77z m-515 -188
c-19 -67 -81 -136 -140 -155 -49 -16 -130 -8 -163 17 -40 30 -37 37 20 51 64
15 198 78 253 119 22 17 42 29 43 27 2 -1 -4 -28 -13 -59z m-914 18 c13 -16
12 -17 -3 -4 -10 7 -18 15 -18 17 0 8 8 3 21 -13z m-173 -138 c0 -17 -1 -17
-5 -2 -2 9 -8 17 -11 17 -4 0 -8 17 -8 38 l-2 37 13 -35 c8 -19 13 -44 13 -55z
m457 -110 c10 -27 38 -71 62 -97 l45 -47 -46 -133 c-57 -167 -60 -212 -14
-254 27 -23 29 -24 10 -3 -12 14 -22 33 -22 43 0 11 19 -3 55 -42 l55 -60 126
39 c144 44 144 44 144 23 0 -8 14 -29 30 -46 36 -36 37 -48 6 -85 -23 -28
-119 -68 -158 -66 -10 0 -18 -1 -18 -2 0 -2 29 -22 65 -44 36 -23 65 -48 65
-55 0 -8 5 -16 11 -18 9 -3 9 -9 0 -25 -14 -27 -17 -79 -6 -117 7 -26 6 -28
-16 -21 -13 4 -47 25 -76 46 -28 21 -91 62 -140 90 -168 99 -312 209 -338 259
-11 20 -15 65 -16 147 -2 103 -3 110 -9 55 -4 -34 -11 -66 -15 -70 -10 -9 2
132 14 173 l9 30 2 -35 c1 -34 2 -33 15 15 11 41 56 171 117 338 12 34 19 28
43 -38z m278 -396 c4 -16 11 -19 26 -14 12 3 21 2 21 -4 0 -5 14 -12 31 -16
16 -4 28 -12 26 -18 -4 -12 -134 -53 -142 -45 -8 7 16 68 26 68 5 0 9 5 9 11
0 5 -4 7 -10 4 -5 -3 -10 3 -10 14 0 27 16 27 23 0z m-607 -154 c-11 -8 -25
-15 -30 -15 -6 1 0 7 14 15 32 19 40 18 16 0z m1915 -71 c168 -58 195 -77 240
-164 34 -67 39 -212 9 -299 -68 -202 -234 -341 -496 -415 -124 -35 -285 -64
-399 -72 -82 -6 -95 -9 -90 -23 4 -10 3 -12 -3 -6 -5 6 -15 36 -22 69 -13 57
-13 60 13 106 20 35 24 49 15 53 -7 2 21 5 62 6 99 2 154 21 226 79 33 26 77
56 98 67 101 52 167 144 191 267 8 40 22 93 31 118 12 31 17 77 18 147 1 57 2
103 3 103 0 0 47 -16 104 -36z m-831 1 c37 -19 60 -52 60 -87 0 -39 -12 -35
-54 17 -38 45 -62 57 -68 31 -2 -11 -10 -10 -42 3 -36 16 -37 18 -20 31 11 9
15 10 10 3 -9 -17 -5 -16 30 2 36 19 48 19 84 0z m-29 -72 c13 -16 12 -17 -3
-4 -10 7 -18 15 -18 17 0 8 8 3 21 -13z m-151 -43 c0 -5 -10 -10 -22 -9 -22 0
-22 1 -3 9 11 5 21 9 23 9 1 1 2 -3 2 -9z m-211 -26 c14 -12 -19 -1 -35 12
-18 14 -18 14 6 3 14 -6 27 -13 29 -15z m-2039 -14 c-6 -11 -13 -20 -16 -20
-2 0 0 9 6 20 6 11 13 20 16 20 2 0 0 -9 -6 -20z m1680 -188 c0 -9 -62 -47
-72 -44 -5 1 -8 -2 -8 -8 0 -5 -9 -10 -19 -10 -11 0 -26 -7 -35 -15 -13 -14
-16 -13 -26 5 -9 17 -7 22 17 31 15 7 48 20 73 30 49 20 70 23 70 11z m30
-385 c0 -2 -12 -14 -27 -28 l-28 -24 24 28 c23 25 31 32 31 24z m-3264 -559
c15 -13 25 -18 21 -11 -5 7 0 9 13 6 22 -6 27 -19 8 -21 -7 0 -24 -4 -37 -8
-21 -6 -23 -5 -16 17 6 20 5 22 -6 12 -16 -16 -39 -17 -39 -2 0 5 5 7 12 3 8
-5 9 -2 5 9 -9 23 5 21 39 -5z m84 -12 c0 -3 -4 -8 -10 -11 -5 -3 -10 -1 -10
4 0 6 5 11 10 11 6 0 10 -2 10 -4z m552 -43 c-10 -4 -9 -9 5 -20 17 -14 17
-14 -1 -9 -10 4 -24 2 -31 -4 -9 -8 -11 -4 -7 15 3 18 11 25 26 24 11 0 15 -3
8 -6z m-6 -80 c-3 -8 -6 -20 -6 -26 -1 -7 -7 -1 -14 13 -16 28 -12 42 10 33 8
-3 13 -12 10 -20z m3294 -102 c0 -5 3 -16 6 -24 3 -9 -3 -16 -15 -20 -22 -5
-27 7 -15 37 7 17 24 22 24 7z m-170 -95 c0 -2 -24 -18 -53 -34 -29 -16 -76
-56 -105 -88 -51 -58 -80 -69 -47 -17 23 36 34 44 125 98 76 46 80 48 80 41z
m-770 -30 c0 -7 -93 -57 -97 -52 -2 2 15 15 39 29 43 25 58 31 58 23z m-130
-74 c-13 -9 -50 -39 -82 -65 -32 -26 -58 -44 -58 -39 0 13 42 49 101 87 55 35
84 48 39 17z m782 -39 c-55 -56 -86 -68 -63 -24 9 16 103 80 118 81 2 0 -23
-26 -55 -57z m-2907 26 c11 -17 -1 -21 -15 -4 -8 9 -8 15 -2 15 6 0 14 -5 17
-11z m2659 -54 c16 -38 29 -42 73 -23 34 13 69 21 61 12 -4 -3 -2 -19 4 -36
14 -41 71 -65 184 -78 49 -5 97 -10 108 -10 17 0 18 -5 12 -52 -8 -59 -24 -92
-46 -94 -35 -3 -49 -10 -83 -40 -16 -14 -50 -28 -63 -25 -6 0 -30 -17 -53 -39
-22 -22 -46 -40 -51 -40 -6 0 -10 15 -10 34 0 19 -4 38 -10 41 -5 3 -10 13
-10 22 0 8 -11 29 -25 45 -14 16 -23 34 -19 39 3 5 1 9 -5 9 -5 0 -13 10 -17
22 -4 13 -25 60 -46 105 -31 64 -38 90 -33 113 4 16 8 30 11 30 2 0 10 -16 18
-35z m-2671 8 c-4 -11 -3 -14 5 -9 7 4 12 1 12 -10 0 -13 -3 -14 -15 -4 -17
14 -20 40 -5 40 5 0 6 -7 3 -17z m97 -7 c0 -2 -7 -6 -15 -10 -8 -3 -15 -1 -15
4 0 6 7 10 15 10 8 0 15 -2 15 -4z m-63 -101 c0 -8 -4 -15 -9 -15 -10 0 -11
14 -1 23 9 10 10 9 10 -8z m101 -40 c-3 -3 -9 2 -12 12 -6 14 -5 15 5 6 7 -7
10 -15 7 -18z m112 -21 c0 -2 -7 -4 -15 -4 -8 0 -15 4 -15 10 0 5 7 7 15 4 8
-4 15 -8 15 -10z m-190 -74 c8 -5 11 -10 5 -10 -5 0 -17 5 -25 10 -8 5 -10 10
-5 10 6 0 17 -5 25 -10z m6505 -57 c24 -62 106 -144 168 -168 26 -10 47 -21
47 -25 0 -4 -21 -15 -47 -25 -62 -24 -144 -106 -168 -168 -10 -26 -21 -47 -25
-47 -4 0 -15 21 -25 47 -24 62 -106 144 -168 168 -26 10 -47 21 -47 25 0 4 21
15 47 25 28 11 69 40 99 69 29 30 58 71 69 99 10 26 21 47 25 47 4 0 15 -21
25 -47z m-6470 27 c13 -6 15 -9 5 -9 -8 0 -22 4 -30 9 -18 12 -2 12 25 0z
m283 -52 c7 -7 12 -16 12 -20 0 -11 -23 -6 -32 7 -18 24 -1 34 20 13z m-38
-59 c0 -5 -4 -8 -9 -4 -5 3 -11 -2 -13 -11 -3 -15 -4 -15 -18 1 -8 11 -10 16
-3 12 6 -4 14 -3 18 3 8 13 25 13 25 -1z m-117 -83 c3 -8 -2 -16 -14 -19 -14
-4 -19 0 -19 14 0 22 25 26 33 5z m74 -12 c-3 -3 -12 -4 -19 -1 -8 3 -5 6 6 6
11 1 17 -2 13 -5z m4067 -30 c57 -37 80 -68 66 -94 -13 -25 -34 -26 -46 -1 -8
17 -12 17 -57 -14 -40 -28 -44 -35 -28 -40 10 -3 22 -17 25 -30 4 -17 11 -23
23 -18 10 4 14 2 10 -4 -8 -13 19 -11 30 2 4 4 2 5 -4 1 -8 -4 -13 -1 -13 8 0
9 7 16 16 16 12 0 15 -6 10 -22 -3 -13 -6 -29 -6 -36 0 -7 -4 -11 -9 -7 -5 3
-12 1 -16 -5 -3 -5 1 -10 9 -10 9 0 13 -6 10 -14 -3 -8 2 -26 11 -40 10 -14
16 -27 14 -27 -17 -6 -49 -5 -49 2 0 5 7 9 15 9 8 0 15 5 15 10 0 6 -4 10 -10
10 -5 0 -10 5 -10 11 0 20 -25 36 -50 32 -32 -5 -45 -19 -25 -27 9 -3 13 -2
10 4 -3 6 -2 10 3 10 13 0 24 -29 16 -41 -3 -5 -2 -8 3 -7 4 2 9 -1 11 -7 3
-13 -18 -14 -40 -3 -11 5 -18 5 -18 0 0 -5 -76 -10 -168 -11 -194 -2 -203 1
-323 85 -79 55 -106 81 -96 90 3 3 25 8 49 10 24 2 75 9 113 15 39 7 81 13 95
14 14 1 38 7 53 13 16 7 31 12 35 12 4 0 43 16 87 35 44 19 86 35 93 35 14 0
75 40 80 53 6 13 24 8 66 -19z m-4077 -79 c0 -8 -4 -12 -9 -9 -5 3 -6 10 -3
15 9 13 12 11 12 -6z m4248 -28 c7 -7 6 -8 -2 -3 -8 5 -13 1 -14 -11 -1 -17
-2 -17 -6 0 -4 15 -15 21 -35 18 -5 0 -8 4 -8 9 0 12 50 2 65 -13z m-4175 0
c0 -7 -6 -22 -14 -33 -12 -16 -17 -17 -28 -6 -11 11 -10 12 5 7 19 -8 24 10 5
18 -8 3 -5 6 5 6 10 1 15 6 12 11 -3 6 -1 10 4 10 6 0 11 -6 11 -13z m34 -14
c-8 -9 -18 -12 -22 -8 -4 4 -1 10 6 12 6 3 10 9 7 14 -4 5 1 6 9 3 14 -5 14
-8 0 -21z m4090 -9 c3 -8 2 -12 -4 -9 -6 3 -10 10 -10 16 0 14 7 11 14 -7z
m-107 -22 c8 -5 3 -11 -13 -19 -21 -10 -23 -9 -15 1 6 7 8 16 4 19 -9 9 9 8
24 -1z m75 -9 c-6 -2 -10 -9 -6 -14 3 -5 0 -9 -5 -9 -6 0 -11 7 -11 15 0 8 8
15 18 14 10 0 12 -3 4 -6z m58 -19 c0 -16 -26 -8 -33 11 -4 9 1 11 14 8 10 -3
19 -11 19 -19z m-1110 -9 c7 -8 9 -15 6 -15 -4 0 -14 7 -22 15 -9 8 -11 15 -6
15 5 0 15 -7 22 -15z m18 -45 c-7 -10 -14 -17 -17 -15 -4 4 18 35 25 35 2 0
-1 -9 -8 -20z m1041 -42 c-20 -38 -39 -7 -23 36 6 15 8 15 19 -1 9 -12 10 -23
4 -35z m-1094 -28 c-3 -5 -1 -10 5 -10 6 0 8 -4 5 -10 -3 -5 -1 -10 4 -10 11
0 15 15 11 35 -1 6 4 5 11 -2 10 -10 9 -15 -1 -28 -20 -25 -50 -19 -50 10 0
14 5 25 11 25 5 0 7 -4 4 -10z m-25 -31 c0 -5 -19 -9 -42 -9 -35 1 -39 3 -25
11 9 6 27 7 38 4 16 -5 19 -4 14 5 -5 9 -4 11 3 6 7 -4 12 -11 12 -17z"/>
<path d="M4453 8775 c-124 -54 -244 -308 -246 -521 -1 -114 26 -178 86 -208
146 -71 309 176 324 489 6 128 -6 185 -47 227 -32 31 -66 35 -117 13z m-33
-600 c-7 -8 -17 -15 -23 -15 -6 0 -2 7 9 15 25 19 30 19 14 0z"/>
<path d="M1323 8665 c-11 -8 -23 -24 -26 -35 -7 -26 5 -26 21 0 8 13 23 20 42
20 24 0 36 -9 60 -42 36 -50 37 -55 5 -84 -13 -12 -27 -35 -31 -50 -8 -32 5
-75 25 -82 11 -4 12 0 6 14 -21 49 -18 73 14 104 34 35 38 57 16 100 -31 61
-89 85 -132 55z"/>
<path d="M2155 8324 c-20 -16 -25 -24 -14 -24 21 0 53 24 48 38 -2 6 -17 0
-34 -14z"/>
<path d="M1787 8313 c-16 -15 -5 -35 28 -49 46 -19 44 -23 -7 -14 -49 9 -58 6
-58 -20 0 -20 -4 -19 173 -50 64 -12 122 -18 127 -15 6 3 10 14 10 24 0 12
-35 33 -124 74 -125 58 -138 62 -149 50z"/>
<path d="M2194 8104 c-23 -61 -23 -108 1 -134 17 -19 17 -22 3 -37 -9 -8 -28
-15 -42 -15 -14 0 -26 -4 -26 -9 0 -17 57 -9 73 9 21 23 21 41 2 66 -19 25
-19 62 0 116 21 59 11 62 -11 4z"/>
<path d="M2297 8114 c-18 -18 -4 -44 36 -66 162 -94 155 -91 167 -69 9 17 5
24 -27 46 l-38 26 50 -3 c45 -3 50 -1 53 19 3 19 -4 23 -50 32 -79 15 -183 23
-191 15z"/>
<path d="M1745 8025 c-36 -35 -34 -93 4 -134 38 -40 117 -76 211 -96 41 -9
110 -27 153 -40 43 -14 92 -25 108 -25 34 0 89 25 89 41 0 5 -10 3 -22 -5 -32
-23 -85 -20 -143 8 -37 17 -79 54 -155 135 -57 62 -117 119 -132 127 -42 22
-85 18 -113 -11z m123 -25 c22 -16 71 -65 107 -110 37 -44 72 -80 78 -80 5 0
8 -2 5 -5 -7 -7 -165 30 -217 51 -45 18 -101 75 -101 103 0 28 39 71 64 71 13
0 41 -13 64 -30z"/>
<path d="M1933 7764 c-28 -12 -11 -23 35 -22 47 1 92 -14 92 -32 0 -6 7 -10
16 -10 21 0 13 20 -17 42 -24 18 -104 32 -126 22z"/>
<path d="M8549 8183 c-13 -16 -12 -17 4 -4 9 7 17 15 17 17 0 8 -8 3 -21 -13z"/>
<path d="M8531 8140 c-1 -28 33 -90 49 -90 5 0 1 9 -10 20 -11 11 -22 32 -26
47 -9 45 -12 50 -13 23z"/>
<path d="M8660 8081 c0 -6 -15 -18 -32 -26 -18 -8 -26 -14 -17 -15 22 0 66 36
57 46 -5 4 -8 2 -8 -5z"/>
<path d="M8568 8013 c7 -3 16 -2 19 1 4 3 -2 6 -13 5 -11 0 -14 -3 -6 -6z"/>
<path d="M8618 8003 c7 -3 16 -2 19 1 4 3 -2 6 -13 5 -11 0 -14 -3 -6 -6z"/>
<path d="M8436 7863 c-6 -14 -5 -15 5 -6 7 7 10 15 7 18 -3 3 -9 -2 -12 -12z"/>
<path d="M8465 7820 c-3 -5 -13 -6 -22 -3 -11 4 -14 3 -9 -5 10 -17 33 -15 40
3 6 17 0 20 -9 5z"/>
<path d="M8776 7753 c-6 -14 -5 -15 5 -6 7 7 10 15 7 18 -3 3 -9 -2 -12 -12z"/>
<path d="M8572 7685 c0 -16 2 -22 5 -12 2 9 2 23 0 30 -3 6 -5 -1 -5 -18z"/>
<path d="M8570 7441 c0 -8 -8 -11 -20 -8 -11 3 -18 1 -14 -4 3 -5 11 -9 19 -9
16 0 30 18 21 27 -3 4 -6 1 -6 -6z"/>
<path d="M8620 7443 c0 -6 8 -17 18 -24 16 -13 16 -13 2 6 -8 11 -16 22 -17
24 -2 2 -3 0 -3 -6z"/>
<path d="M1676 7525 c-40 -41 -20 -105 33 -105 50 0 76 53 51 101 -13 23 -62
26 -84 4z m59 -45 c0 -18 -6 -26 -21 -28 -26 -4 -40 24 -23 45 18 21 44 11 44
-17z"/>
<path d="M1598 7299 c-32 -18 -41 -48 -23 -75 35 -53 122 -5 93 50 -19 36 -39
43 -70 25z m48 -34 c7 -18 -13 -45 -33 -45 -17 0 -27 24 -19 45 7 20 45 19 52
0z"/>
<path d="M3717 7099 c4 -13 8 -18 11 -10 2 7 -1 18 -6 23 -8 8 -9 4 -5 -13z"/>
<path d="M3540 7000 c0 -6 7 -10 15 -10 8 0 15 2 15 4 0 2 -7 6 -15 10 -8 3
-15 1 -15 -4z"/>
<path d="M4415 7238 c-3 -7 -11 -47 -19 -88 -8 -41 -26 -130 -40 -197 -14 -67
-26 -127 -26 -132 0 -16 49 -13 104 6 71 26 147 98 181 174 50 112 34 191 -46
231 -41 21 -147 25 -154 6z"/>
<path d="M7974 7060 c-204 -53 -339 -186 -320 -314 14 -93 102 -167 240 -203
107 -27 341 -25 459 5 113 28 185 62 237 113 99 96 108 238 21 312 -35 29
-154 69 -276 92 -107 21 -272 18 -361 -5z m415 -51 c155 -37 205 -58 225 -98
23 -44 19 -140 -5 -125 -5 3 -7 -1 -4 -8 8 -20 -30 -74 -74 -106 -46 -33 -174
-76 -271 -92 -84 -13 -218 -13 -299 1 -76 12 -197 60 -194 77 2 6 -3 9 -11 6
-17 -7 -54 44 -62 85 -20 98 99 217 267 265 142 42 237 40 428 -5z"/>
<path d="M7799 6713 l-34 -38 38 34 c34 33 42 41 34 41 -2 0 -19 -17 -38 -37z"/>
<path d="M5582 6944 c-1 -15 2 -22 8 -19 12 7 13 32 2 39 -4 2 -9 -7 -10 -20z"/>
<path d="M2400 5845 c-47 -13 -120 -26 -163 -30 -48 -4 -75 -11 -71 -17 14
-22 245 20 313 57 34 19 23 17 -79 -10z"/>
<path d="M8120 5075 c0 -8 4 -15 9 -15 5 0 14 7 21 15 10 13 9 15 -9 15 -12 0
-21 -6 -21 -15z"/>
<path d="M7955 4950 c-3 -5 -1 -10 4 -10 6 0 11 5 11 10 0 6 -2 10 -4 10 -3 0
-8 -4 -11 -10z"/>
<path d="M8127 4924 c17 -26 33 -32 33 -11 0 18 -13 32 -32 33 -15 1 -16 0 -1
-22z"/>
<path d="M8181 4804 c0 -11 3 -14 6 -6 3 7 2 16 -1 19 -3 4 -6 -2 -5 -13z"/>
<path d="M8207 4786 c-9 -7 -17 -17 -17 -21 0 -4 6 -3 13 3 6 6 15 11 20 11 4
1 7 4 8 7 2 12 -7 12 -24 0z"/>
<path d="M6020 4869 c-68 -11 -145 -48 -188 -90 -69 -68 -61 -95 10 -35 64 55
123 78 212 84 97 6 172 -10 225 -49 47 -33 51 -34 51 -15 0 24 -72 76 -125 90
-73 21 -123 24 -185 15z"/>
<path d="M6765 4712 c-41 -26 -64 -54 -74 -90 -8 -27 -5 -35 20 -61 31 -33 39
-85 19 -135 -5 -14 -6 -26 -1 -26 12 0 31 57 31 94 0 17 -9 48 -20 69 -27 50
-25 64 14 103 52 52 92 44 123 -25 11 -26 11 -26 12 10 2 64 -67 97 -124 61z"/>
<path d="M6483 4689 c3 -10 11 -35 18 -58 7 -23 15 -41 19 -41 11 0 -15 89
-29 102 -11 11 -13 10 -8 -3z"/>
<path d="M5359 4664 c-86 -26 -162 -123 -179 -227 -14 -91 10 -108 28 -19 14
69 68 153 120 186 47 31 112 48 165 44 23 -1 42 2 44 8 9 26 -104 31 -178 8z"/>
<path d="M6370 4431 c-8 -5 -51 -16 -94 -26 -44 -9 -97 -23 -119 -31 -34 -12
-38 -12 -33 1 3 8 9 22 12 30 13 32 -22 13 -41 -22 -11 -20 -30 -40 -43 -44
-22 -8 -22 -8 -6 22 25 49 -5 31 -38 -22 -30 -50 -35 -77 -13 -85 8 -4 15 -14
15 -24 0 -11 4 -21 9 -25 6 -3 63 8 128 24 65 16 148 34 186 41 37 7 70 17 73
22 4 6 -1 8 -12 4 -44 -13 -216 -47 -220 -43 -2 2 51 17 118 34 100 24 122 33
120 46 -2 9 2 17 8 17 5 0 10 5 10 10 0 6 -7 10 -16 10 -12 0 -15 6 -10 24 7
28 -12 48 -34 37z m-16 -46 c4 -10 -3 -20 -20 -27 -20 -9 -28 -9 -41 5 -15 15
-15 17 8 26 35 14 46 13 53 -4z m-74 -50 c0 -8 -9 -15 -20 -15 -20 0 -26 11
-13 23 12 13 33 7 33 -8z m-224 -110 c-11 -8 -25 -15 -30 -15 -6 0 -2 7 8 15
11 8 25 15 30 15 6 0 2 -7 -8 -15z"/>
<path d="M5500 4154 c-45 -21 -64 -25 -105 -20 -46 6 -48 5 -31 -9 11 -8 25
-15 30 -15 31 -1 -25 -20 -58 -20 -33 0 -37 -2 -26 -15 10 -12 10 -18 -1 -32
-11 -13 -11 -17 -1 -20 6 -3 12 -13 12 -24 0 -23 21 -24 61 -3 17 8 36 13 42
11 7 -2 -5 -10 -25 -17 -21 -8 -38 -20 -38 -27 0 -18 0 -18 98 31 48 25 116
52 152 62 74 20 89 29 73 45 -6 6 -9 17 -6 24 2 8 0 23 -7 34 -16 31 -98 29
-170 -5z m127 -10 c7 -19 -13 -34 -44 -34 -22 0 -32 27 -16 43 13 13 54 7 60
-9z m-99 -66 c-5 -15 -48 -24 -48 -10 0 14 12 22 33 22 10 0 17 -5 15 -12z"/>
<path d="M6557 4115 c-24 -50 -20 -58 4 -12 11 22 19 41 17 43 -3 2 -12 -12
-21 -31z"/>
<path d="M5806 4044 c-5 -58 -4 -80 6 -90 18 -16 58 -28 58 -16 0 6 -12 13
-26 16 -26 7 -26 8 -20 74 4 37 3 73 -2 80 -6 9 -12 -14 -16 -64z"/>
<path d="M6040 3954 c-112 -84 -167 -107 -273 -110 -89 -3 -122 -17 -55 -22
31 -3 40 -9 62 -47 63 -107 177 -141 299 -90 127 53 199 225 126 303 -34 38
-74 29 -159 -34z m128 8 c2 -8 -20 -37 -50 -67 -63 -60 -142 -95 -216 -95 -64
0 -86 15 -36 25 53 10 118 45 194 104 63 50 99 60 108 33z m22 -58 c0 -36 -24
-95 -53 -130 -38 -46 -98 -73 -159 -74 -58 0 -78 7 -78 30 0 25 18 37 93 60
53 16 79 32 124 75 62 58 73 64 73 39z"/>
<path d="M2340 3813 c0 -4 9 -26 21 -50 51 -105 198 -111 259 -11 40 67 38 68
-130 68 -82 0 -150 -3 -150 -7z"/>
<path d="M3111 3549 c-34 -97 12 -215 101 -260 49 -25 133 -27 181 -4 34 16
97 71 97 85 0 8 -344 210 -358 210 -6 0 -15 -14 -21 -31z"/>
<path d="M1910 3145 c-32 -38 27 -191 106 -275 25 -27 72 -62 102 -77 52 -25
68 -28 231 -34 97 -4 195 -12 219 -19 26 -8 80 -45 143 -97 145 -120 250 -169
384 -179 85 -7 200 20 280 66 105 60 225 224 225 307 0 25 -6 36 -24 44 -37
17 -61 -3 -100 -85 -59 -122 -154 -193 -290 -217 -135 -23 -256 21 -401 146
-136 118 -161 127 -386 136 -152 5 -193 10 -230 26 -69 31 -127 106 -159 208
-7 22 -17 46 -23 53 -13 17 -62 15 -77 -3z"/>
<path d="M6820 1454 c-36 -7 -82 -13 -103 -14 -35 0 -38 -2 -31 -22 3 -13 8
-25 10 -27 6 -7 208 29 218 39 12 12 0 40 -16 39 -7 -1 -42 -7 -78 -15z"/>
<path d="M7471 506 c-9 -10 -8 -16 3 -25 12 -10 17 -8 25 7 16 30 -6 44 -28
18z"/>
<path d="M7373 443 c-7 -2 -13 -14 -13 -25 0 -27 25 -17 26 10 1 12 1 22 0 21
0 0 -7 -3 -13 -6z"/>
<path d="M7227 373 c-2 -4 -1 -17 3 -27 6 -19 7 -19 14 -1 7 19 -8 44 -17 28z"/>
<path d="M7401 354 c0 -11 3 -14 6 -6 3 7 2 16 -1 19 -3 4 -6 -2 -5 -13z"/>
<path d="M7330 343 c1 -18 18 -35 24 -24 4 6 4 16 1 21 -7 12 -25 13 -25 3z"/>
<path d="M7356 305 c-3 -8 -2 -15 3 -15 5 0 14 7 21 15 10 12 10 15 -3 15 -8
0 -17 -7 -21 -15z"/>
<path d="M7216 302 c-3 -5 0 -17 7 -26 12 -16 13 -16 14 3 2 22 -12 37 -21 23z"/>
<path d="M7410 240 c0 -5 5 -10 11 -10 5 0 7 5 4 10 -3 6 -8 10 -11 10 -2 0
-4 -4 -4 -10z"/>
<path d="M3460 10031 c26 -14 70 -22 70 -12 0 5 12 12 28 14 15 2 -4 5 -43 5
-42 1 -64 -2 -55 -7z"/>
<path d="M3668 10033 c46 -2 118 -2 160 0 42 1 5 3 -83 3 -88 0 -123 -2 -77
-3z"/>
<path d="M3928 10033 c6 -2 18 -2 25 0 6 3 1 5 -13 5 -14 0 -19 -2 -12 -5z"/>
<path d="M4003 10033 c20 -2 54 -2 75 0 20 2 3 4 -38 4 -41 0 -58 -2 -37 -4z"/>
<path d="M5288 10033 c7 -3 16 -2 19 1 4 3 -2 6 -13 5 -11 0 -14 -3 -6 -6z"/>
<path d="M5448 10033 c7 -3 16 -2 19 1 4 3 -2 6 -13 5 -11 0 -14 -3 -6 -6z"/>
<path d="M5598 10033 c7 -3 16 -2 19 1 4 3 -2 6 -13 5 -11 0 -14 -3 -6 -6z"/>
<path d="M5793 10033 c20 -2 54 -2 75 0 20 2 3 4 -38 4 -41 0 -58 -2 -37 -4z"/>
<path d="M5978 10033 c12 -2 30 -2 40 0 9 3 -1 5 -23 4 -22 0 -30 -2 -17 -4z"/>
<path d="M6088 10033 c7 -3 16 -2 19 1 4 3 -2 6 -13 5 -11 0 -14 -3 -6 -6z"/>
<path d="M6178 10033 c34 -2 90 -2 125 0 34 2 6 3 -63 3 -69 0 -97 -1 -62 -3z"/>
<path d="M6403 10033 c9 -2 23 -2 30 0 6 3 -1 5 -18 5 -16 0 -22 -2 -12 -5z"/>
<path d="M6695 10010 c-3 -5 -2 -10 4 -10 5 0 13 5 16 10 3 6 2 10 -4 10 -5 0
-13 -4 -16 -10z"/>
<path d="M6760 9979 c0 -5 5 -7 10 -4 6 3 10 8 10 11 0 2 -4 4 -10 4 -5 0 -10
-5 -10 -11z"/>
<path d="M6535 9940 c-3 -5 -3 -15 1 -21 6 -11 23 6 24 24 0 10 -18 9 -25 -3z"/>
<path d="M6695 9940 c3 -5 1 -10 -4 -10 -6 0 -11 -7 -11 -15 0 -8 9 -15 20
-15 11 0 20 4 20 9 0 18 -12 41 -22 41 -5 0 -6 -4 -3 -10z"/>
<path d="M6089 9848 c4 -13 6 -30 3 -38 -3 -10 -1 -12 6 -5 6 6 14 22 17 38 6
23 4 27 -14 27 -17 0 -19 -4 -12 -22z"/>
<path d="M6445 9850 c-3 -6 1 -7 9 -4 18 7 21 14 7 14 -6 0 -13 -4 -16 -10z"/>
<path d="M6494 9845 c8 -8 16 -15 19 -15 2 0 4 7 4 15 0 8 -9 15 -19 15 -17 0
-18 -2 -4 -15z"/>
<path d="M4415 9811 c-3 -5 -2 -12 3 -15 5 -3 9 1 9 9 0 17 -3 19 -12 6z"/>
<path d="M6321 9724 c0 -11 3 -14 6 -6 3 7 2 16 -1 19 -3 4 -6 -2 -5 -13z"/>
<path d="M3337 9681 c-4 -17 -3 -21 5 -13 5 5 8 16 6 23 -3 8 -7 3 -11 -10z"/>
<path d="M6596 9685 c-3 -9 0 -15 9 -15 8 0 15 7 15 15 0 8 -4 15 -9 15 -5 0
-11 -7 -15 -15z"/>
<path d="M6713 9693 c-21 -8 -15 -33 9 -33 12 0 18 3 15 7 -4 3 -2 12 4 20 12
14 -2 17 -28 6z"/>
<path d="M6675 9591 c-3 -5 -1 -12 5 -16 5 -3 10 1 10 9 0 18 -6 21 -15 7z"/>
<path d="M6811 9572 c-14 -27 6 -46 26 -26 15 15 11 44 -6 44 -6 0 -15 -8 -20
-18z"/>
<path d="M6880 9558 c0 -19 2 -20 10 -8 13 19 13 30 0 30 -5 0 -10 -10 -10
-22z"/>
<path d="M6708 9540 c-15 -9 -14 -14 10 -50 32 -49 49 -39 31 19 -13 44 -15
46 -41 31z"/>
<path d="M6876 9515 c-3 -8 -1 -15 4 -15 6 0 10 7 10 15 0 8 -2 15 -4 15 -2 0
-6 -7 -10 -15z"/>
<path d="M6810 9495 c0 -8 4 -15 8 -15 5 0 9 7 9 15 0 8 -4 15 -9 15 -4 0 -8
-7 -8 -15z"/>
<path d="M6894 9472 c5 -9 -1 -23 -15 -39 -13 -15 -18 -23 -11 -19 6 4 12 2
12 -3 0 -6 8 -11 18 -10 10 0 12 3 5 6 -18 7 -16 30 3 41 14 8 13 10 -2 23
-13 10 -16 11 -10 1z"/>
<path d="M4701 9454 c0 -11 3 -14 6 -6 3 7 2 16 -1 19 -3 4 -6 -2 -5 -13z"/>
<path d="M4721 9436 c10 -9 79 -14 74 -5 -4 5 -22 9 -42 9 -20 0 -34 -2 -32
-4z"/>
<path d="M4840 9400 c14 -11 31 -20 38 -20 22 0 4 17 -30 29 l-33 11 25 -20z"/>
<path d="M3345 9376 c6 -29 18 -44 31 -39 8 3 14 13 13 22 0 10 -2 11 -6 4 -7
-20 -22 -15 -18 5 2 11 -3 19 -10 19 -7 0 -12 -5 -10 -11z"/>
<path d="M6840 9307 c0 -8 7 -14 15 -14 8 0 15 6 15 14 0 7 -7 13 -15 13 -8 0
-15 -6 -15 -13z"/>
<path d="M6525 9253 c-33 -9 -68 -36 -124 -95 -37 -40 -61 -58 -78 -58 -13 0
-21 -4 -18 -10 14 -22 53 -10 80 25 39 52 65 74 118 101 26 13 47 29 47 34 0
6 -1 9 -2 9 -2 -1 -12 -4 -23 -6z"/>
<path d="M6151 8884 c0 -11 3 -14 6 -6 3 7 2 16 -1 19 -3 4 -6 -2 -5 -13z"/>
<path d="M5245 2000 c5 -80 26 -165 38 -154 4 4 7 0 7 -9 0 -25 78 -254 100
-295 12 -20 18 -28 14 -17 -3 11 -28 83 -54 161 -26 77 -57 179 -68 225 -41
170 -42 172 -37 89z"/>
<path d="M5592 1985 c0 -16 2 -22 5 -12 2 9 2 23 0 30 -3 6 -5 -1 -5 -18z"/>
<path d="M3225 1463 c2 -10 4 -20 4 -23 1 -3 9 -10 19 -16 16 -10 17 -8 14 22
-3 25 -9 34 -22 34 -12 0 -17 -6 -15 -17z"/>
<path d="M3270 1383 c1 -18 18 -35 24 -24 4 6 4 16 1 21 -7 12 -25 13 -25 3z"/>
<path d="M3164 1351 c-14 -12 -30 -18 -43 -14 -15 4 -21 1 -21 -11 0 -11 4
-14 12 -10 7 4 25 9 42 11 35 4 39 7 34 28 -3 14 -6 14 -24 -4z"/>
<path d="M3233 1353 c-15 -5 -18 -33 -4 -33 8 0 25 30 19 35 -2 1 -9 0 -15 -2z"/>
<path d="M3295 1330 c-3 -5 1 -10 10 -10 9 0 13 5 10 10 -3 6 -8 10 -10 10 -2
0 -7 -4 -10 -10z"/>
<path d="M3371 1266 c-17 -20 -3 -66 20 -66 23 0 26 44 5 65 -12 12 -16 12
-25 1z"/>
<path d="M3355 1080 c-10 -11 -27 -20 -38 -20 -19 0 -20 -1 -2 -20 17 -19 17
-21 -1 -42 -15 -18 -16 -20 -2 -9 15 11 19 11 24 -2 3 -9 3 -20 0 -25 -3 -5 5
-8 17 -8 12 1 30 -4 40 -13 9 -8 20 -11 24 -8 3 4 1 7 -6 7 -7 0 -9 5 -6 10 3
6 1 10 -6 10 -8 0 -8 4 1 15 11 13 8 15 -13 15 -19 0 -25 4 -21 15 5 12 2 13
-12 8 -18 -7 -18 -6 -3 17 14 22 31 70 25 70 -2 0 -11 -9 -21 -20z"/>
<path d="M3497 986 c-7 -19 4 -27 21 -17 10 6 10 10 -1 20 -12 9 -16 8 -20 -3z"/>
<path d="M3574 934 c3 -9 6 -18 6 -20 0 -3 5 -2 10 1 6 3 10 -2 11 -12 0 -10
3 -13 5 -6 7 15 -13 53 -27 53 -6 0 -8 -7 -5 -16z"/>
<path d="M3527 907 c4 -6 0 -8 -10 -4 -13 5 -17 1 -17 -18 0 -16 6 -25 16 -25
13 0 14 3 5 13 -8 10 -7 14 4 14 8 0 15 -4 15 -9 0 -5 5 -6 11 -3 15 10 6 38
-14 41 -10 1 -14 -2 -10 -9z"/>
<path d="M3640 901 c0 -5 5 -13 10 -16 6 -3 10 -2 10 4 0 5 -4 13 -10 16 -5 3
-10 2 -10 -4z"/>
<path d="M3532 817 c18 -19 38 -22 38 -7 0 6 -4 10 -9 10 -5 0 -18 3 -28 7
-17 6 -17 6 -1 -10z"/>
<path d="M3650 800 c0 -32 14 -40 24 -14 9 24 7 31 -9 38 -11 4 -15 -2 -15
-24z"/>
<path d="M3277 789 c7 -7 15 -10 18 -7 3 3 -2 9 -12 12 -14 6 -15 5 -6 -5z"/>
<path d="M3860 744 c0 -8 5 -12 10 -9 6 3 10 10 10 16 0 5 -4 9 -10 9 -5 0
-10 -7 -10 -16z"/>
<path d="M3740 684 c0 -8 5 -12 10 -9 6 3 10 10 10 16 0 5 -4 9 -10 9 -5 0
-10 -7 -10 -16z"/>
<path d="M4190 690 c0 -5 5 -10 10 -10 6 0 10 5 10 10 0 6 -4 10 -10 10 -5 0
-10 -4 -10 -10z"/>
<path d="M3686 667 c3 -10 9 -15 12 -12 3 3 0 11 -7 18 -10 9 -11 8 -5 -6z"/>
<path d="M3368 653 c7 -3 16 -2 19 1 4 3 -2 6 -13 5 -11 0 -14 -3 -6 -6z"/>
<path d="M3660 625 c0 -8 4 -15 10 -15 5 0 7 7 4 15 -4 8 -8 15 -10 15 -2 0
-4 -7 -4 -15z"/>
<path d="M3522 613 c4 -20 65 -25 65 -5 0 9 -8 11 -25 7 -15 -4 -21 -2 -17 5
3 5 -1 10 -10 10 -10 0 -15 -7 -13 -17z"/>
<path d="M4236 575 c4 -8 10 -15 15 -15 4 0 6 7 3 15 -4 8 -10 15 -15 15 -4 0
-6 -7 -3 -15z"/>
<path d="M3793 549 c-26 -10 -31 -29 -7 -29 9 0 12 5 8 12 -5 8 -2 9 9 5 9 -3
19 -2 22 3 8 14 -8 18 -32 9z"/>
<path d="M3600 539 c0 -5 5 -7 10 -4 6 3 10 8 10 11 0 2 -4 4 -10 4 -5 0 -10
-5 -10 -11z"/>
<path d="M3666 475 c-9 -26 -7 -32 5 -12 6 10 9 21 6 23 -2 3 -7 -2 -11 -11z"/>
<path d="M3745 450 c3 -5 8 -10 11 -10 2 0 4 5 4 10 0 6 -5 10 -11 10 -5 0 -7
-4 -4 -10z"/>
<path d="M3820 450 c0 -5 5 -10 11 -10 5 0 7 5 4 10 -3 6 -8 10 -11 10 -2 0
-4 -4 -4 -10z"/>
<path d="M3551 398 c-8 -13 -13 -25 -12 -28 1 -2 -5 -7 -14 -10 -11 -4 -8 -8
15 -17 27 -10 30 -9 30 8 0 10 5 19 10 19 6 0 10 4 10 10 0 5 -7 7 -16 3 -13
-5 -15 -2 -9 15 8 28 3 28 -14 0z"/>
<path d="M3600 387 c0 -16 3 -17 15 -7 8 7 15 16 15 20 0 3 -7 7 -15 7 -8 0
-15 -9 -15 -20z"/>
<path d="M3660 372 c0 -23 19 -42 35 -36 10 4 10 11 1 30 -13 28 -36 32 -36 6z"/>
<path d="M3614 362 c-17 -11 -26 -44 -12 -40 7 3 13 9 13 14 0 5 4 15 8 22 9
14 7 15 -9 4z"/>
<path d="M3755 350 c-3 -5 -1 -10 4 -10 6 0 11 5 11 10 0 6 -2 10 -4 10 -3 0
-8 -4 -11 -10z"/>
<path d="M6380 344 c0 -8 4 -13 9 -9 5 3 12 1 16 -5 3 -5 -1 -10 -10 -10 -9 0
-13 -5 -10 -10 5 -8 11 -8 19 -1 7 6 15 8 19 5 3 -3 4 2 3 11 -4 29 -46 47
-46 19z"/>
<path d="M3623 335 c0 -8 6 -15 13 -15 8 0 11 6 8 15 -4 8 -9 15 -13 15 -4 0
-8 -7 -8 -15z"/>
<path d="M5821 334 c0 -11 3 -14 6 -6 3 7 2 16 -1 19 -3 4 -6 -2 -5 -13z"/>
<path d="M6180 340 c0 -5 5 -10 10 -10 6 0 10 5 10 10 0 6 -4 10 -10 10 -5 0
-10 -4 -10 -10z"/>
<path d="M6257 329 c-4 -16 -2 -17 14 -8 22 12 25 26 5 26 -8 0 -17 -9 -19
-18z"/>
<path d="M3520 320 c0 -12 5 -17 14 -14 7 3 16 -2 19 -10 9 -24 27 -19 27 7 0
16 -3 18 -9 8 -7 -11 -11 -9 -20 8 -15 26 -31 27 -31 1z"/>
<path d="M6153 323 c-17 -6 -16 -20 1 -26 8 -3 19 0 26 7 12 15 -5 27 -27 19z"/>
<path d="M3454 309 c-3 -6 -1 -16 5 -22 8 -8 11 -5 11 11 0 24 -5 28 -16 11z"/>
<path d="M6341 304 c0 -11 3 -14 6 -6 3 7 2 16 -1 19 -3 4 -6 -2 -5 -13z"/>
<path d="M3600 291 c0 -5 6 -11 13 -14 8 -3 14 1 14 9 0 8 -6 14 -14 14 -7 0
-13 -4 -13 -9z"/>
<path d="M3768 268 c14 -14 45 -20 37 -8 -2 4 -14 10 -26 13 -16 4 -19 3 -11
-5z"/>
<path d="M5766 248 c3 -5 10 -6 15 -3 13 9 11 12 -6 12 -8 0 -12 -4 -9 -9z"/>
<path d="M6280 256 c0 -2 7 -7 16 -10 8 -3 12 -2 9 4 -6 10 -25 14 -25 6z"/>
<path d="M3676 242 c-2 -4 -1 -14 3 -21 6 -9 11 -10 15 -2 4 6 2 11 -4 11 -6
0 -8 5 -5 10 3 6 4 10 1 10 -3 0 -7 -4 -10 -8z"/>
<path d="M6155 230 c-19 -8 -19 -9 3 -9 12 -1 22 4 22 9 0 6 -1 10 -2 9 -2 0
-12 -4 -23 -9z"/>
</g>
</svg>
