<svg width="1024" height="1024" viewBox="0 0 1024 1024" fill="none" xmlns="http://www.w3.org/2000/svg">
  <rect width="1024" height="1024" rx="200" fill="#2563EB"/>
  <circle cx="512" cy="512" r="350" fill="white" fill-opacity="0.1"/>
  <circle cx="512" cy="512" r="250" fill="white" fill-opacity="0.2"/>
  <g transform="translate(256, 256) scale(16)">
    <path d="M7 18c.6 0 1.2-.4 1.4-1 .3-.8 1-1.5 1.8-2l.8-.5c2.6-1.8 3.8-5 2.8-8.1-.3-1-1.1-1.8-2.1-2.1C8.6 3.3 5.4 4.5 3.6 7.1l-.5.8c-.5.8-1.2 1.5-2 1.8-1 .3-1.5.9-1.5 1.5v.8c0 1.1.9 2 2 2h1.5c.3 0 .5.2.5.5V18c0 1.1.9 2 2 2h1c.6 0 1-.4 1-1z" fill="white"/>
    <path d="M17 18c.6 0 1.2-.4 1.4-1 .3-.8 1-1.5 1.8-2l.8-.5c2.6-1.8 3.8-5 2.8-8.1-.3-1-1.1-1.8-2.1-2.1C18.6 3.3 15.4 4.5 13.6 7.1l-.5.8c-.5.8-1.2 1.5-2 1.8-1 .3-1.5.9-1.5 1.5v.8c0 1.1.9 2 2 2h1.5c.3 0 .5.2.5.5V18c0 1.1.9 2 2 2h1c.6 0 1-.4 1-1z" fill="white" opacity="0.5" transform="translate(4,0)"/>
  </g>
  <text x="512" y="850" text-anchor="middle" font-family="Arial, sans-serif" font-weight="900" font-size="120" fill="white" style="letter-spacing: 10px;">TOILET RUN</text>
</svg>
